<?xml version="1.0" encoding="UTF-8"?>
<svg width="96px" height="96px" viewBox="0 0 96 96" version="1.1" xmlns="http://www.w3.org/2000/svg" xmlns:xlink="http://www.w3.org/1999/xlink">
    <!-- Generator: Sketch 58 (84663) - https://sketch.com -->
    <title>Icons / asset digitalization</title>
    <desc>Created with Sketch.</desc>
    <g id="Icons-/-asset-digitalization" stroke="none" stroke-width="1" fill="none" fill-rule="evenodd">
        <g id="Group-15" transform="translate(13.000000, 28.000000)">
            <path d="M16.8843656,0 C14.2588974,0 12.1230176,2.15751425 12.1230176,4.80500754 L12.1230176,15.0728797 L11.9717626,15.0728797 C10.3334322,15.0728797 9,16.4191172 9,18.0729973 L9,22.4201556 C9,23.9688106 10.1694399,25.2475756 11.6644761,25.403405 C11.6390016,25.4925651 11.6214879,25.5857414 11.6214879,25.6813275 L11.6214879,35.5740846 C11.6214879,38.5661697 14.0328109,41 16.999001,41 L47.582761,41 C48.1368319,41 48.5858204,40.5469702 48.5858204,39.9879122 C48.5858204,39.4288541 48.1368319,38.9758243 47.582761,38.9758243 L16.999001,38.9758243 C15.1401567,38.9758243 13.6276068,37.4496601 13.6276068,35.5740846 L13.6276068,25.6813275 C13.6276068,25.5576279 13.6021322,25.4411575 13.5623283,25.331113 L16.7920205,25.331113 L16.7920205,32.5089043 C16.7920205,34.5346864 18.4247783,36.1829438 20.4316933,36.1829438 C23.103478,36.1829438 25.1073166,36.1829438 26.4432089,36.1829438 C26.7973037,36.1829438 27.3284458,36.1829438 28.0366352,36.1829438 C28.175153,36.1829438 28.2874001,36.0696863 28.2874001,35.9299218 C28.2874001,35.7901573 28.175153,35.6768999 28.0366352,35.6768999 C26.5554339,35.6768999 25.4445329,35.6768999 24.7039323,35.6768999 C23.7545458,35.6768999 22.3304662,35.6768999 20.4316933,35.6768999 C18.7018138,35.6768999 17.2935502,34.2559607 17.2935502,32.5089043 L17.2935502,25.331113 L21.1187094,25.331113 C22.7092751,25.331113 24.0036994,24.0250377 24.0036994,22.4201556 L24.0036994,18.0729973 C24.0036994,16.4673119 22.7092751,15.1612366 21.1187094,15.1612366 L20.3512893,15.1612366 C20.0742539,15.1612366 19.8497596,15.3885547 19.8497596,15.6672805 C19.8497596,15.9476128 20.0742539,16.1733245 20.3512893,16.1733245 L21.1187094,16.1733245 C22.1560002,16.1733245 23.00064,17.0255667 23.00064,18.0729973 L23.00064,22.4201556 C23.00064,23.4675862 22.1560002,24.3190251 21.1187094,24.3190251 L17.2935502,24.3190251 L17.2935502,23.1029132 C17.2935502,22.9631487 17.180507,22.8498913 17.0427853,22.8498913 C16.9042676,22.8498913 16.7920205,22.9631487 16.7920205,23.1029132 L16.7920205,24.3190251 L12.2639236,24.3190251 C12.1755588,24.2684207 12.0808254,24.2306683 11.9717626,24.2306683 C10.9822365,24.2306683 10.1774007,23.4185882 10.1774007,22.4201556 L10.1774007,18.0729973 C10.1774007,17.0745646 10.9822365,16.2624846 11.9717626,16.2624846 L16.2013299,16.2624846 C16.5269262,16.2624846 16.7904283,15.9958075 16.7904283,15.6672805 C16.7904283,15.3395568 16.5269262,15.0728797 16.2013299,15.0728797 L13.126077,15.0728797 L13.126077,4.80500754 C13.126077,2.71416257 14.8129683,1.01208785 16.8843656,1.01208785 L55.238652,1.01208785 C57.3116415,1.01208785 58.9977366,2.71416257 58.9977366,4.80500754 L58.9977366,35.6889485 C58.9977366,37.7805968 57.3116415,39.4818682 55.238652,39.4818682 L51.5082261,39.4818682 C51.2319868,39.4818682 51.0074925,39.7099896 51.0074925,39.9879122 C51.0074925,40.2674412 51.2319868,40.4939561 51.5082261,40.4939561 L55.238652,40.4939561 C57.8641203,40.4939561 60,38.3380483 60,35.6889485 L60,4.80500754 C60,2.15751425 57.8641203,0 55.238652,0 L16.8843656,0 Z" id="Fill-1" fill="#FEFEFE"></path>
            <g id="Group-6" transform="translate(39.000000, 4.000000)">
                <path d="M16.3455652,15.3384381 C16.8894783,15.3384381 17.3316522,14.9102476 17.3316522,14.3784381 L17.3316522,4.49348571 C17.3316522,2.17500952 15.3931304,0.288533333 13.0124348,0.288533333 L1.59965217,0.288533333 C1.05652174,0.288533333 0.613565217,0.719771429 0.613565217,1.24929524 C0.613565217,1.77958095 1.05652174,2.20929524 1.59965217,2.20929524 L13.0124348,2.20929524 C14.3068696,2.20929524 15.3586957,3.23405714 15.3586957,4.49348571 L15.3586957,14.3784381 C15.3586957,14.9102476 15.8008696,15.3384381 16.3455652,15.3384381" id="Fill-3" fill="#FEFEFE"></path>
                <path d="M16.3455652,15.3384381 C16.8894783,15.3384381 17.3316522,14.9102476 17.3316522,14.3784381 L17.3316522,4.49348571 C17.3316522,2.17500952 15.3931304,0.288533333 13.0124348,0.288533333 L1.59965217,0.288533333 C1.05652174,0.288533333 0.613565217,0.719771429 0.613565217,1.24929524 C0.613565217,1.77958095 1.05652174,2.20929524 1.59965217,2.20929524 L13.0124348,2.20929524 C14.3068696,2.20929524 15.3586957,3.23405714 15.3586957,4.49348571 L15.3586957,14.3784381 C15.3586957,14.9102476 15.8008696,15.3384381 16.3455652,15.3384381" id="Stroke-5"></path>
            </g>
            <g id="Group-6" transform="translate(8.000000, 43.000000) scale(1, -1) rotate(270.000000) translate(-8.000000, -43.000000) translate(-1.000000, 35.000000)" fill="#00EAC7">
                <path d="M17.3316522,14.3784381 L17.3316522,4.49348571 C17.3316522,2.17500952 15.3931304,0.288533333 13.0124348,0.288533333 L1.59965217,0.288533333 C1.05652174,0.288533333 0.613565217,0.719771429 0.613565217,1.24929524 C0.613565217,1.77958095 1.05652174,2.20929524 1.59965217,2.20929524 L13.0124348,2.20929524 C14.3068696,2.20929524 15.3586957,3.23405714 15.3586957,4.49348571 L15.3586957,14.3784381 C15.3586957,14.9102476 15.8008696,15.3384381 16.3455652,15.3384381 C16.8894783,15.3384381 17.3316522,14.9102476 17.3316522,14.3784381 Z" id="Fill-3"></path>
            </g>
            <path d="M19.0004648,22 C20.103881,22 21,21.1022305 21,20 C21,18.8968401 20.103881,18 19.0004648,18 C17.8970486,18 17,18.8968401 17,20 C17,21.1022305 17.8970486,22 19.0004648,22 M19.0004648,19.3754647 C19.3434813,19.3754647 19.6251452,19.6561338 19.6251452,20 C19.6251452,20.3438662 19.3434813,20.6254647 19.0004648,20.6254647 C18.6565187,20.6254647 18.3748548,20.3438662 18.3748548,20 C18.3748548,19.6561338 18.6565187,19.3754647 19.0004648,19.3754647" id="Fill-7" fill="#FEFEFE"></path>
        </g>
        <path d="M30,17 L56,17" id="Line" stroke="#00EAC7" stroke-linecap="round" stroke-linejoin="round"></path>
        <path d="M79,56 L88,56" id="Line" stroke="#00EAC7" stroke-linecap="round" stroke-linejoin="round" transform="translate(83.500000, 56.000000) rotate(90.000000) translate(-83.500000, -56.000000) "></path>
        <path d="M30,17 L56,17" id="Line" stroke="#00EAC7" stroke-linecap="round" stroke-linejoin="round"></path>
        <circle id="Oval" stroke="#00EAC7" stroke-width="3" cx="16.5" cy="16.5" r="1.5"></circle>
    </g>
</svg>