<svg width="24" height="24" viewBox="0 0 24 24" fill="none" xmlns="http://www.w3.org/2000/svg">
<path fill-rule="evenodd" clip-rule="evenodd" d="M10 8.75C9.58579 8.75 9.25 8.41421 9.25 8V7.75H3.75V17.25H5.25V15.5C5.25 14.3828 5.81368 13.3973 6.67215 12.8123C6.40647 12.443 6.25 11.9897 6.25 11.5C6.25 10.2574 7.25736 9.25 8.5 9.25C9.74264 9.25 10.75 10.2574 10.75 11.5C10.75 11.9897 10.5935 12.443 10.3278 12.8123C11.1863 13.3973 11.75 14.3828 11.75 15.5V17.25H20.25V7.75H14.75V8C14.75 8.41421 14.4142 8.75 14 8.75H10ZM10.25 17.25V15.5C10.25 14.5335 9.4665 13.75 8.5 13.75C7.5335 13.75 6.75 14.5335 6.75 15.5V17.25H10.25ZM8.5 12.25C8.91421 12.25 9.25 11.9142 9.25 11.5C9.25 11.0858 8.91421 10.75 8.5 10.75C8.08579 10.75 7.75 11.0858 7.75 11.5C7.75 11.9142 8.08579 12.25 8.5 12.25ZM14.75 6.25V4C14.75 3.58579 14.4142 3.25 14 3.25H10C9.58579 3.25 9.25 3.58579 9.25 4V6.25H3C2.58579 6.25 2.25 6.58579 2.25 7V18C2.25 18.4142 2.58579 18.75 3 18.75H21C21.4142 18.75 21.75 18.4142 21.75 18V7C21.75 6.58579 21.4142 6.25 21 6.25H14.75ZM10.75 4.75V7.25H13.25V4.75H10.75ZM14 10.25H13.25V11.75H14H18H18.75V10.25H18H14ZM14 13.25H13.25V14.75H14H18H18.75V13.25H18H14Z" fill="#ffffff"/>
</svg>
