<?xml version="1.0" encoding="UTF-8"?>
<svg width="96px" height="96px" viewBox="0 0 96 96" version="1.1" xmlns="http://www.w3.org/2000/svg" xmlns:xlink="http://www.w3.org/1999/xlink">
    <!-- Generator: Sketch 58 (84663) - https://sketch.com -->
    <title>Icons / chain</title>
    <desc>Created with Sketch.</desc>
    <g id="Icons-/-chain" stroke="none" stroke-width="1" fill="none" fill-rule="evenodd">
        <g id="Group" transform="translate(11.000000, 13.000000)">
            <path d="M1.50030297,34 C2.32862048,34 3,34.6724951 3,35.4994106 C3,36.3280943 2.32862048,37 1.50030297,37 C0.671985457,37 0,36.3280943 0,35.4994106 C0,34.6724951 0.671985457,34 1.50030297,34" id="Fill-4" stroke="#00EAC7" stroke-width="3"></path>
            <path d="M16,60 C20.9705627,60 25,55.9705627 25,51 C25,46.0294373 20.9705627,42 16,42 C11.0294373,42 7,46.0294373 7,51" id="Oval" stroke="#FFFFFF" stroke-width="2" stroke-linecap="round" transform="translate(16.000000, 51.000000) rotate(190.000000) translate(-16.000000, -51.000000) "></path>
            <path d="M46,16.0088914 C48.4494324,16.0088914 50.8165893,15.6566287 53.0535742,15" id="Oval" stroke="#FFFFFF" stroke-linecap="round" transform="translate(49.526787, 15.504446) rotate(-143.000000) translate(-49.526787, -15.504446) "></path>
            <path d="M19.3232609,42.910272 C21.7245605,39.0711724 23.1125095,34.5333014 23.1125095,29.6712575 C23.1125095,22.1105125 19.7561772,15.3336809 14.452163,10.7494132" id="Oval" stroke="#FFFFFF" stroke-linecap="round" transform="translate(18.782336, 26.829843) rotate(-143.000000) translate(-18.782336, -26.829843) "></path>
            <circle id="Oval" stroke="#FFFFFF" stroke-width="2" cx="57" cy="51" r="9"></circle>
            <circle id="Oval" stroke="#FFFFFF" cx="37" cy="13" r="9"></circle>
            <path d="M63.9424647,42.276901 C63.9424647,37.6051977 62.66106,33.2327825 60.4305545,29.4919591 C59.2168665,27.4564597 57.7221696,25.6079613 56,24" id="Oval" stroke="#FFFFFF" stroke-width="2" stroke-linecap="round" transform="translate(59.971232, 33.138451) rotate(16.000000) translate(-59.971232, -33.138451) "></path>
            <path d="M30.9588617,63.8328207 C38.6083374,63.8328207 45.4553921,60.3972482 50.0411966,54.9849326" id="Oval" stroke="#FFFFFF" stroke-width="2" stroke-linecap="round" transform="translate(40.500029, 59.408877) rotate(16.000000) translate(-40.500029, -59.408877) "></path>
            <path d="M72.499697,2 C73.3280145,2 74,2.67203773 74,3.49970525 C74,4.32855178 73.3280145,5 72.499697,5 C71.6713795,5 71,4.32855178 71,3.49970525 C71,2.67203773 71.6713795,2 72.499697,2" id="Fill-10" stroke="#FFFFFF" stroke-width="3"></path>
            <path d="M59,70.5 C59,71.3284198 58.3286205,72 57.499697,72 C56.6719855,72 56,71.3284198 56,70.5 C56,69.6727594 56.6719855,69 57.499697,69 C58.3286205,69 59,69.6727594 59,70.5" id="Fill-8" stroke="#00CCAB" stroke-width="3"></path>
            <path d="M49.415405,9.13374531 C47.7693153,3.84208731 42.8333415,-7.10542736e-15 37,-7.10542736e-15 C35.1155755,-7.10542736e-15 33.3247978,0.400949729 31.7083234,1.12219275" id="Oval" stroke="#00EAC7" stroke-linecap="round"></path>
            <path d="M27.8265775,9.38205845 C27.2065508,7.23782177 26.0493094,5.32162149 24.5100805,3.78868503" id="Oval" stroke="#00EAC7" stroke-linecap="round" transform="translate(26.168329, 6.585372) scale(-1, 1) translate(-26.168329, -6.585372) "></path>
        </g>
    </g>
</svg>