<svg width="24" height="24" viewBox="0 0 24 24" fill="none" xmlns="http://www.w3.org/2000/svg">
<path fill-rule="evenodd" clip-rule="evenodd" d="M5.00001 2.25C4.76551 2.25 4.54452 2.35967 4.4027 2.54642C4.26089 2.73317 4.21459 2.9755 4.27755 3.20138L4.35466 3.47803L4.35443 3.47809L4.55516 4.20073L9.27739 21.2007L9.47812 21.9234L10.9234 21.5219L10.7227 20.7993L8.20898 11.75H8.5836C9.39864 11.75 10.2025 11.9398 10.9315 12.3043L12.3977 13.0374C13.335 13.506 14.3685 13.75 15.4164 13.75H19C19.2841 13.75 19.5438 13.5895 19.6708 13.3354C19.7979 13.0813 19.7705 12.7773 19.6 12.55L16.9375 9L19.6 5.45C19.7705 5.22274 19.7979 4.91868 19.6708 4.66459C19.5438 4.4105 19.2841 4.25 19 4.25L15.4164 4.25C14.6014 4.25 13.7975 4.06024 13.0685 3.69574L11.6023 2.96262C10.665 2.49398 9.6315 2.25 8.5836 2.25H5.00001ZM8.5836 10.25H7.79954L5.98766 3.75L8.5836 3.75C9.39864 3.75 10.2025 3.93976 10.9315 4.30426L12.3977 5.03738C13.335 5.50602 14.3685 5.75 15.4164 5.75H17.5L15.4 8.55C15.2 8.81667 15.2 9.18333 15.4 9.45L17.5 12.25H15.4164C14.6014 12.25 13.7975 12.0602 13.0685 11.6957L11.6023 10.9626C10.665 10.494 9.6315 10.25 8.5836 10.25Z" fill="#ffffff"/>
</svg>
