<svg width="1724" height="513" viewBox="0 0 1724 513" fill="none" xmlns="http://www.w3.org/2000/svg">
<path fill-rule="evenodd" clip-rule="evenodd" d="M255.46 513C396.549 513 510.919 398.164 510.919 256.5C510.919 114.839 396.549 0 255.46 0C114.374 0 0 114.839 0 256.5C0 398.164 114.374 513 255.46 513ZM255.46 378.099C322.346 378.099 376.566 323.657 376.566 256.5C376.566 189.343 322.346 134.901 255.46 134.901C188.575 134.901 134.355 189.343 134.355 256.5C134.355 323.657 188.575 378.099 255.46 378.099Z" fill="white"/>
<path d="M886.342 326.039L883.211 331.735C873.768 348.893 860.955 361.692 845.587 370.661C829.74 379.646 813.095 383.908 795.555 383.908C766.898 383.908 742.171 373.299 721.062 350.907L721.043 350.886L721.023 350.865C699.742 328.737 689.172 297.804 689.172 256.777C689.172 216.211 699.738 185.273 721.023 163.14L721.043 163.119L721.062 163.099C742.21 140.662 766.957 129.646 795.555 129.646C828.475 129.646 854.86 143.195 875.533 170.326L879.159 175.082L913.227 145.89L909.659 141.613C895.561 124.697 878.157 111.53 858.413 102.599L858.365 102.579C838.271 93.7008 817.17 89 795.555 89C754.246 89 718.964 104.088 689.054 133.526L689.019 133.557C658.814 163.759 644 205.075 644 256.777C644 283.533 648.153 308.18 656.578 329.72C664.955 351.577 676.676 369.506 691.415 382.84C705.494 396.426 721.895 406.726 739.668 413.75C757.586 421.281 775.943 424.553 795.555 424.553C819.94 424.553 843.406 418.92 865.43 407.677C887.6 396.359 905.938 379.401 919.989 357.862L922.877 353.434L886.342 326.039ZM1031.46 93.0644H986.285V420.487H1166.85L1179.37 379.843H1031.46V93.0644ZM1215.8 324.913L1216.38 330.111C1219.7 360.038 1233.12 383.696 1257.15 400.056C1280.31 416.571 1306.75 424.553 1336.27 424.553C1365.31 424.553 1390.46 417.038 1411.88 401.336C1433.29 385.766 1444.46 363.254 1444.46 335.359C1444.46 313.771 1437.71 295.309 1425.07 280.246L1425.01 280.171L1424.94 280.097C1412.16 265.898 1396.56 255.039 1378.67 247.509C1361.38 240.233 1344.11 233.873 1326.99 227.564L1326.93 227.544C1310.13 221.353 1295.82 213.939 1284.71 204.965L1284.62 204.891L1284.52 204.82C1273.71 196.809 1268.74 186.722 1268.74 174.582C1268.74 160.593 1274.19 150.112 1285.35 142.143C1296.9 133.892 1311.07 129.646 1327.69 129.646C1343.78 129.646 1357.69 133.859 1370.41 141.487C1382.61 148.803 1389.24 158.683 1391.22 171.389L1392.15 177.316L1436.34 167.634L1435.33 162.251C1430.97 139.02 1418.76 120.98 1398.5 107.961L1398.46 107.936L1398.42 107.91C1378.54 95.6033 1355.82 89 1330.4 89C1301.74 89 1276.62 97.0042 1255.71 112.209C1234.26 127.803 1223.57 149.883 1223.57 177.743C1223.57 193.032 1226.92 206.264 1233.85 217.667C1240.71 229.397 1250 238.154 1261.06 244.889C1271.76 251.396 1283.36 256.966 1296.31 261.599C1308.58 266.593 1320.83 271.126 1333.47 275.642C1345.88 280.073 1356.94 284.938 1367.09 290.234C1376.88 295.34 1384.71 301.584 1390.41 309.297C1396.09 317.431 1399.29 326.682 1399.29 337.165C1399.29 351.595 1393.4 362.903 1381.48 370.856L1381.42 370.891L1381.37 370.928C1368.94 379.627 1353.86 383.908 1335.82 383.908C1316.11 383.908 1299.25 378.794 1284.53 367.86L1284.49 367.828L1284.44 367.798C1270.17 357.607 1262.31 342.997 1261.05 322.813L1260.65 316.429L1215.8 324.913ZM1711.49 133.711L1724 93.0644H1478.52V133.711H1575.64V420.487H1620.82V133.711H1711.49Z" fill="white"/>
</svg>
