<svg width="24" height="24" viewBox="0 0 24 24" fill="none" xmlns="http://www.w3.org/2000/svg">
<path fill-rule="evenodd" clip-rule="evenodd" d="M9.07282 19.5151L9.27886 18.794L13.2789 4.79396L13.4849 4.07281L14.9272 4.4849L14.7211 5.20604L10.7211 19.206L10.5151 19.9272L9.07282 19.5151ZM2.37596 12.416C2.20801 12.1641 2.20801 11.8359 2.37596 11.584L6.37596 5.58398L6.79199 4.95994L8.04006 5.79199L7.62404 6.41603L3.90139 12L7.62404 17.584L8.04006 18.208L6.79199 19.0401L6.37596 18.416L2.37596 12.416ZM17.624 5.58398L21.624 11.584C21.792 11.8359 21.792 12.1641 21.624 12.416L17.624 18.416L17.208 19.0401L15.9599 18.208L16.376 17.584L20.0986 12L16.376 6.41603L15.9599 5.79199L17.208 4.95994L17.624 5.58398Z" fill="#ffffff"/>
</svg>
