<?xml version="1.0" encoding="utf-8"?>
<!-- Generator: Adobe Illustrator 25.4.1, SVG Export Plug-In . SVG Version: 6.00 Build 0)  -->
<svg version="1.1" id="katman_1" xmlns="http://www.w3.org/2000/svg" xmlns:xlink="http://www.w3.org/1999/xlink" x="0px" y="0px"
	 viewBox="0 0 294.6 91.9" style="enable-background:new 0 0 294.6 91.9;" xml:space="preserve">
<style type="text/css">
	.st0{fill:none;}
	.st1{fill:#FFFFFF;}
	.st2{fill:#DADEEF;}
	.st3{fill:#FCFDFB;}
	.st4{fill-rule:evenodd;clip-rule:evenodd;fill:#7E8295;}
	.st5{fill-rule:evenodd;clip-rule:evenodd;fill:#FCFDFB;}
	.st6{fill-rule:evenodd;clip-rule:evenodd;fill:#A9ACBF;}
	.st7{fill-rule:evenodd;clip-rule:evenodd;fill:#FFFEFC;}
	.st8{fill-rule:evenodd;clip-rule:evenodd;fill:#FFFFFF;}
</style>
<g>
	<path class="st0" d="M77,62.2c-3.8,7.6-9.7,13.1-17.5,16.5c-2.3,1-4.7,1.8-7.3,2.2c-0.2,0-0.3,0.3-0.4,0.1
		c-0.6-3.8,0.3-7.4,1.8-10.9c1.9-4.2,4.6-7.8,7.6-11.3c2.5-2.9,5.4-5.6,8.2-8.3c1.6-1.6,3-3.2,3.8-5.3c1.4-3.4,0.6-6.2-2.4-8.4
		c-2.3-1.7-5-2.6-7.7-3.4c-2.6-0.8-5.2-1.8-7.7-2.8c-0.5-1.7-1.7-2.8-3.3-3.4c-2.1-0.5-4.2-0.3-6.4,0.3c-2.2-0.4-4.4-0.8-6.7-0.7
		c-2.5,0.1-4.7,0.9-7,1.8c-2.7,1-5.2,2.4-7.2,4.5c-2.2,2.3-3.4,5.1-3.9,8.3c-0.4,2.7-0.5,5.4-0.8,8.1c-0.5,5.8-1.4,11.6-3.8,16.9
		c0,0,0.1,0.1,0.1,0.1c0,0.4,0.2,0.6,0.4,0.9c1.5,2.1,3.2,4.1,5.2,5.8c0.9,0.8,1.8,1.6,2.8,2.3c2.8,1.8,5.7,3.5,8.9,4.6
		c2.6,0.9,5.3,1.6,8,1.9c2.1,0.2,4.3,0.3,6.4,0c1.2-0.2,2.5-0.2,3.7-0.7c0.2,0.1,0.3-0.1,0.4-0.1c2.5-0.4,4.9-1.2,7.3-2.2
		c7.8-3.4,13.7-8.9,17.5-16.5c2.6-5.1,3.8-10.4,3.8-15.9C80.8,52,79.5,57.2,77,62.2z"/>
	<path class="st0" d="M46.5,13.6c4.4,0.8,8.6,2.2,12.7,3.8c4,1.6,7.4,3.9,9.9,7.5c1.7,2.5,3.3,5.1,4.6,7.9c1.7,3.8,3,7.7,3.8,11.7
		c0.4,1.6,0.7,2.9,0.9,4.3h0.2c0.4-1.4,0.4-2.9,0.4-4.4c0-1.7-0.2-3.4-0.5-5.1C77.4,33.8,74.9,29,71,24.9c-2.4-2.5-5.1-4.6-7.8-6.8
		c-2.4-2-5-3.5-8-4.3c-2.9-0.7-5.7-1.1-8.7-0.6c-0.2,0-0.4,0-0.4,0.2S46.3,13.6,46.5,13.6z"/>
	<path class="st0" d="M10.4,51.5C10.2,50,10,48.6,10,47.1c0,1.5,0.2,3,0.4,4.6c0.6,4.5,2.1,8.8,4.4,12.7c0.1,0.1,0.2,0.2,0.3,0.3
		c-0.1-0.2-0.2-0.4-0.3-0.5C12.5,60.3,11,56,10.4,51.5z"/>
	<path class="st1" d="M45.5,8.2C24.3,8.1,7.3,25.3,7.3,46.5c0,21.1,17.3,38.1,37.9,38.3c21.3,0.1,38.6-17.2,38.6-38.2
		C83.8,25.3,66.7,8.2,45.5,8.2z M59.5,79c-2.4,1-4.8,1.8-7.3,2.2c-0.1,0-0.2,0.2-0.4,0.1c-1.2,0.5-2.5,0.5-3.7,0.7
		c-2.1,0.3-4.3,0.2-6.4,0c-2.7-0.3-5.4-1-8-1.9c-3.2-1.1-6.1-2.8-8.9-4.6c-1-0.7-1.9-1.5-2.8-2.3c-2-1.7-3.7-3.7-5.2-5.8
		c-0.2-0.3-0.4-0.5-0.4-0.9c0,0-0.1-0.1-0.1-0.1c0,0,0,0,0,0c-0.5-0.5-0.9-1.1-1.2-1.7c-0.1-0.1-0.2-0.2-0.3-0.3
		c-2.3-3.9-3.8-8.2-4.4-12.7c-0.2-1.6-0.4-3-0.4-4.6c0-0.5,0-1,0-1.5c0.3-8,2.8-15.2,7.9-21.5c4.4-5.5,10-9.3,16.7-11.5
		c4.1-1.3,8.4-1.9,12.7-1.7c9.6,0.6,17.8,4.5,24.3,11.6c4.8,5.3,7.7,11.5,8.8,18.5c0.3,1.9,0.4,3.8,0.4,5.6c0,5.5-1.2,10.8-3.8,15.9
		C73.2,70.1,67.3,75.6,59.5,79z"/>
	<path class="st2" d="M17.9,24.3c4.5-5.5,10-9.3,16.7-11.5c4.1-1.4,8.4-2,12.7-1.7c9.7,0.6,17.9,4.4,24.3,11.7
		c4.8,5.2,7.8,11.4,8.8,18.5c0.3,1.8,0.4,3.6,0.4,5.3c0-1.9-0.1-3.7-0.4-5.6c-1.1-7-4-13.2-8.8-18.5c-6.5-7.1-14.7-11-24.3-11.6
		c-4.3-0.2-8.6,0.4-12.7,1.7c-6.7,2.2-12.3,6-16.7,11.5c-5.1,6.3-7.6,13.5-7.9,21.5c0,0.5,0,1,0,1.5c0-0.4,0-0.9,0-1.3
		C10.3,37.8,12.8,30.6,17.9,24.3z"/>
	<path class="st2" d="M16.3,66.4C16.3,66.4,16.3,66.4,16.3,66.4c-0.4-0.6-0.8-1.1-1.2-1.7C15.4,65.3,15.7,65.9,16.3,66.4z"/>
</g>
<g>
	<path class="st0" d="M47.3,37.7c0-3.8-3-6.8-6.8-6.8C44.3,30.9,47.3,34,47.3,37.7z"/>
	<path class="st0" d="M65,46c0.8,0,1.5-0.7,1.5-1.6c0-0.8-0.7-1.5-1.6-1.4c-0.8,0-1.4,0.7-1.4,1.5C63.5,45.4,64.1,46,65,46z"/>
	<path class="st0" d="M45.2,42.5c-1.2,1.2-3,2-4.9,2C42.3,44.6,44,43.8,45.2,42.5z"/>
	<path class="st0" d="M40.5,33c-2.7,0-4.8,2.1-4.8,4.8c0,2.6,2.1,4.8,4.7,4.8h0.1c2.6,0,4.7-2.1,4.8-4.8C45.3,35.1,43.2,33,40.5,33z
		"/>
	<path class="st0" d="M70,48.8c-1.3,0.8-2.7,1.4-4.1,2c-3.6,1.5-7.4,2.5-11.4,2.7c-2.9,0.2-5.8,0-8.4-1.6c0.6,0.9,1.7,1.7,3,2.1
		c2.6,0.9,5.2,0.9,7.8,0.4c4.6-0.9,8.9-2.5,12.8-5.1c0.2-0.2,0.6-0.2,0.7-0.6C70.2,48.6,70.1,48.7,70,48.8z"/>
	<path class="st0" d="M70.6,48.6C70.6,48.6,70.6,48.6,70.6,48.6c0.1,0.1,0.2,0,0.2-0.1l0.3-0.2c-0.1,0-0.2,0-0.3,0.1
		C70.7,48.4,70.6,48.5,70.6,48.6z"/>
	<path class="st1" d="M70.9,37c-2.3-1.7-5-2.6-7.7-3.4c-2.6-0.8-5.2-1.8-7.7-2.8c-3.1-1.5-6.4-2.5-9.7-3.3c-2.2-0.5-4.4-0.8-6.7-0.7
		c-2.5,0.1-4.8,0.9-7,1.8c-2.7,1-5.2,2.4-7.2,4.5c-2.2,2.4-3.4,5.2-3.9,8.3c-0.5,2.7-0.6,5.4-0.8,8.1c-0.5,5.8-1.4,11.5-3.8,16.9
		c0,0.3,0.2,0.6,0.4,0.9c1.5,2.1,3.2,4.1,5.2,5.8c0.9,0.8,1.8,1.6,2.8,2.3c2.8,1.8,5.7,3.5,8.9,4.6c2.6,0.9,5.3,1.6,8,1.9
		c2.1,0.2,4.3,0.3,6.4,0c1.2-0.1,2.5-0.1,3.7-0.7c-0.6-3.8,0.3-7.4,1.9-10.9c1.9-4.2,4.6-7.8,7.6-11.3c2.6-2.9,5.5-5.5,8.2-8.3
		c1.5-1.6,3-3.2,3.8-5.3C74.6,42,73.8,39.2,70.9,37z M64.9,43c0.9-0.1,1.6,0.6,1.6,1.4c0,0.9-0.7,1.6-1.5,1.6
		c-0.9,0-1.5-0.6-1.5-1.5C63.5,43.7,64.1,43,64.9,43z M40.4,44.6c-3.8,0-6.8-3.1-6.8-6.9c0-3.8,3.1-6.8,6.9-6.8s6.8,3,6.8,6.8
		c0,1.9-0.8,3.6-2,4.9C44,43.8,42.3,44.6,40.4,44.6z M69.7,49.3c-3.9,2.6-8.2,4.2-12.8,5.1c-2.6,0.5-5.2,0.5-7.8-0.4
		c-1.3-0.4-2.4-1.2-3-2.1c2.6,1.6,5.5,1.8,8.4,1.6c4-0.2,7.8-1.2,11.4-2.7c1.4-0.6,2.8-1.2,4.1-2c0.1-0.1,0.2-0.2,0.4-0.1
		C70.3,49.1,69.9,49.1,69.7,49.3z M70.8,48.5c0,0.1-0.1,0.2-0.2,0.2c0-0.1,0-0.1,0-0.1C70.6,48.5,70.7,48.4,70.8,48.5
		c0.1-0.2,0.2-0.2,0.3-0.2L70.8,48.5z M71.1,48.3C71.1,48.3,71.1,48.2,71.1,48.3C71.1,48.2,71.1,48.3,71.1,48.3z"/>
	<path class="st3" d="M47.3,37.7c0,1.9-0.8,3.6-2,4.9C46.5,41.3,47.3,39.6,47.3,37.7z"/>
	<path class="st3" d="M33.6,37.7c0,3.8,3,6.9,6.8,6.9C36.7,44.5,33.6,41.5,33.6,37.7z"/>
	<path class="st3" d="M40.5,30.9c-3.8,0-6.9,3-6.9,6.8C33.6,34,36.7,30.9,40.5,30.9z"/>
</g>
<path class="st4" d="M46.1,51.9c2.6,1.6,5.5,1.8,8.4,1.7c4-0.2,7.8-1.1,11.4-2.7c1.4-0.6,2.8-1.2,4.1-2c0.1-0.1,0.2-0.2,0.4-0.1
	c-0.1,0.3-0.4,0.4-0.7,0.6c-3.9,2.6-8.2,4.2-12.8,5.1c-2.6,0.5-5.3,0.5-7.8-0.4C47.8,53.6,46.6,52.8,46.1,51.9L46.1,51.9z
	 M45.7,27.5c2.1-0.6,4.3-0.8,6.4,0c1.6,0.6,2.8,1.7,3.3,3.4C52.4,29.3,49.1,28.3,45.7,27.5z"/>
<path class="st5" d="M65,46c-0.8,0-1.5-0.7-1.5-1.5s0.6-1.5,1.4-1.5s1.5,0.6,1.6,1.4C66.4,45.3,65.8,46,65,46z"/>
<path class="st6" d="M70.8,48.5c0,0.1-0.1,0.2-0.2,0.2l0,0C70.6,48.5,70.7,48.4,70.8,48.5L70.8,48.5L70.8,48.5z M71.1,48.3l-0.3,0.2
	l-0.1-0.1C70.9,48.3,71,48.3,71.1,48.3L71.1,48.3z"/>
<path class="st6" d="M71.1,48.3L71.1,48.3C71.3,48.3,71.2,48.3,71.1,48.3L71.1,48.3z"/>
<path class="st7" d="M78.4,48.8c-0.3-1.4-0.6-2.7-0.8-4.1c-0.8-4.1-2.2-8-3.8-11.7c-1.2-2.8-2.8-5.4-4.6-7.9
	c-2.5-3.6-5.8-5.9-9.9-7.5c-4.2-1.6-8.3-3.1-12.7-3.8c-0.2,0-0.4,0-0.4-0.2s0.2-0.2,0.4-0.2c2.9-0.5,5.8-0.2,8.7,0.6
	c3,0.8,5.6,2.4,8,4.3c2.7,2.2,5.4,4.3,7.8,6.8c3.9,4.1,6.4,8.9,7.5,14.4c0.3,1.7,0.5,3.4,0.5,5.1c0,1.4,0,2.9-0.4,4.4L78.4,48.8z"/>
<path class="st4" d="M45.3,37.8c0,2.6-2.1,4.8-4.7,4.8h-0.1c-2.6,0-4.8-2.1-4.8-4.8v-0.1c0-2.7,2.2-4.8,4.8-4.8S45.3,35.1,45.3,37.8
	L45.3,37.8z"/>
<path class="st8" d="M197,57.1c-0.1,0.1-0.2,0.1-0.3,0.2c-3.1,3.5-7,4.1-11.2,3c-5.2-1.3-8-5-9.1-10.1c-0.7-3.3-0.5-6.6,0.8-9.7
	c2.3-5.5,7.5-8.5,13.4-7.7c2.7,0.4,5.2,1.3,7.1,3.3c1.4,1.5,2.2,3.3,2.5,5.3c0.1,0.4-0.1,0.5-0.4,0.5c-1.2,0-2.5,0-3.7,0
	c-0.3,0-0.4-0.1-0.5-0.4c-0.6-2.7-2.4-4.2-5-4.7c-3-0.6-5.6,0-7.6,2.4c-1.8,2.2-2.3,4.9-2.3,7.7c0,2.1,0.4,4.1,1.3,5.9
	c2.1,4,7.3,5.4,11.2,3.1c2.2-1.3,2.9-3.4,3.1-5.8c0-0.5-0.3-0.4-0.6-0.4c-2,0-3.9,0-5.9,0c-0.6,0-0.7-0.2-0.7-0.7c0-0.8,0-1.5,0-2.3
	c0-0.5,0.2-0.6,0.6-0.6c3.4,0,6.9,0,10.3,0c0.4,0,0.6,0.1,0.6,0.5c0,4.4,0,8.7,0,13.1c0,0.4-0.1,0.5-0.5,0.5c-0.8,0-1.8,0.2-2.4-0.1
	c-0.6-0.4-0.4-1.4-0.6-2.2C197.1,57.6,197,57.3,197,57.1z M117.8,41.9c-0.6,0-1.2,0-1.9,0c-0.4,0-0.5-0.1-0.6-0.5
	c-0.8-2.8-2.6-4.5-5.5-4.8c-3.2-0.3-5.9,0.7-7.5,3.6c-2.4,4.4-2.3,8.9,0.1,13.2c1.6,2.9,5.1,4.2,8.3,3.3c2.8-0.8,4.1-2.9,4.7-5.6
	c0.2-1.1,0.2-1.1,1.3-1.1c1,0,2,0,3,0c0.4,0,0.5,0.1,0.4,0.5c-0.5,5.3-3.9,9.4-9.1,10.2c-7.5,1.2-13.7-3.4-14.9-10.9
	c-0.5-3.3-0.2-6.5,1.1-9.6c2.3-5.2,7.4-8,13.1-7.3c2.7,0.4,5.2,1.3,7.2,3.3c1.4,1.5,2.2,3.3,2.5,5.3c0.1,0.4,0,0.5-0.4,0.5
	C119.1,41.8,118.4,41.9,117.8,41.9z M265,60.1c-1.7,0-3.2,0-4.8,0c-0.4,0-0.6-0.2-0.7-0.5c-1.7-2.8-3.5-5.5-5.2-8.3
	c-0.3-0.5-0.4-0.5-0.9-0.1c-1.7,1.2-2.4,2.8-2.1,4.9c0.2,1.1,0,2.3,0,3.5c0,0.5-0.2,0.6-0.6,0.6c-1,0-2,0-3,0
	c-0.5,0-0.6-0.2-0.6-0.7c0-4.1,0-8.2,0-12.4c0-4.3,0-8.6,0-13c0-0.7,0.2-0.9,0.9-0.8c0.9,0.1,1.8,0.1,2.7,0c0.6,0,0.7,0.2,0.7,0.7
	c0,4.5,0,9,0,13.5v0.8l0.2,0.1c0.3-0.4,0.7-0.8,1-1.2c2-2.1,4-4.1,6.1-6.2c0.2-0.2,0.4-0.4,0.7-0.4c1.6,0,3.2,0,4.8,0
	c0,0.3-0.3,0.4-0.4,0.6c-2.1,2-4.1,4-6.3,6c-0.5,0.4-0.5,0.7-0.1,1.3c2.4,3.6,4.8,7.2,7.2,10.8C264.6,59.6,264.8,59.8,265,60.1
	L265,60.1z M215.6,51.5c-2.2,0-4.3,0-6.5,0c-0.5,0-0.6,0.1-0.6,0.6c0.2,3.9,3.8,6.3,7.4,4.8c1-0.4,1.8-1.2,2.2-2.3
	c0.2-0.5,0.5-0.6,0.9-0.6c0.9,0,1.9,0,2.8,0c0.5,0,0.6,0.1,0.4,0.6c-1.1,3.5-3.5,5.4-7.1,5.9c-3.2,0.5-6.2-0.2-8.5-2.6
	c-1.6-1.7-2.3-3.9-2.5-6.2c-0.2-2.8,0.2-5.5,2-7.9c2.3-3,5.4-4.1,9-3.5c3.8,0.7,6.1,3.1,7.2,6.7c0.4,1.3,0.5,2.6,0.4,4
	c0,0.5-0.2,0.6-0.6,0.6C220,51.5,217.8,51.5,215.6,51.5z M213.5,48.7c1.5,0,3,0,4.4,0c0.5,0,0.6-0.1,0.5-0.6
	c-0.4-2.6-2.3-4.5-4.8-4.6c-2.6-0.1-4.7,1.7-5.1,4.4c-0.1,0.5,0,0.7,0.6,0.7C210.6,48.7,212,48.7,213.5,48.7L213.5,48.7z M123,50.4
	c0-1.2,0.2-2.5,0.5-3.7c1.3-4.2,5-6.8,9.6-6.5c3.5,0.2,6.4,1.4,8.1,4.5c2,3.8,2,7.8-0.1,11.5c-1.9,3.5-5.2,4.6-9,4.4
	C126.4,60.3,123,56.4,123,50.4z M127.3,50.4c0,1.7,0.3,3.2,1.3,4.6c1.6,2.3,4.7,3,7,1.4c0.5-0.4,1-0.8,1.4-1.3
	c1.7-2.5,1.8-6.7,0-9.3c-2.1-3-6.5-3-8.5,0.1C127.6,47.2,127.3,48.8,127.3,50.4z M266.1,50.5c0-2.8,0.6-5.3,2.5-7.4
	c1.9-2.2,4.5-3,7.3-3s5.4,0.8,7.4,3c2.1,2.4,2.6,5.3,2.4,8.4c-0.1,1.1-0.3,2.2-0.7,3.2c-1.5,3.9-5.1,6.1-9.7,5.8
	c-5.4-0.3-8.8-3.8-9.1-9.2C266.2,51.1,266.1,50.7,266.1,50.5L266.1,50.5z M281.4,50.7c0-2-0.5-3.7-1.2-4.9c-1.5-2.4-4.7-3-7-1.5
	c-0.6,0.4-1.1,0.9-1.5,1.5c-1.7,2.5-1.6,6.7,0,9.1c1.6,2.3,4.7,3,7,1.4c0.6-0.4,1-0.8,1.4-1.4C281.1,53.6,281.4,52,281.4,50.7z
	 M159.2,43.4c1.2-1.5,2.6-2.6,4.5-3.1c1.7-0.4,3.4-0.3,5,0.4c2.4,1,3.4,3.1,3.5,5.6c0.1,4.4,0,8.8,0,13.2c0,0.5-0.1,0.6-0.6,0.6
	c-1,0-2,0-3,0c-0.5,0-0.7-0.1-0.7-0.7c0-3.7,0-7.5,0-11.2c0-0.8-0.1-1.6-0.3-2.3c-0.6-2-2.5-2.8-4.8-2.2c-2,0.6-3.3,2.4-3.3,4.7
	c0,3.6,0,7.3,0,10.9c0,0.6-0.1,0.9-0.8,0.8c-0.9-0.1-1.9-0.1-2.8,0c-0.5,0-0.7-0.1-0.7-0.7c0-2.8,0-5.5,0-8.3c0-3.2,0-6.4,0-9.6
	c0-0.7,0.2-0.9,0.9-0.8c0.9,0.1,1.7,0,2.6,0c0.5,0,0.7,0.1,0.6,0.6C159.2,42,159.2,42.7,159.2,43.4L159.2,43.4z M241.2,47.2
	c-0.1,0-0.2,0-0.3,0c-1.1,0.1-1.8,0-2.3-1.3c-1.2-3-6-3.1-8-0.3c-0.7,0.9-1,2-1.2,3.2c-0.2,1.9-0.2,3.8,0.6,5.6
	c1,2.2,2.8,3.2,5.1,2.9c1.9-0.3,3.2-1.5,3.7-3.6c0.1-0.6,0.4-0.8,1-0.7c1,0,1.9,0,2.9,0c0.5,0,0.6,0.2,0.5,0.6
	c-1,4.8-4.4,7.5-9.4,7.2s-8.3-3.6-8.7-8.7c-0.2-2.2,0-4.4,0.9-6.5c1.5-3.5,4.9-5.5,8.9-5.3c2.4,0.1,4.6,0.7,6.4,2.4
	c1.1,1.1,1.7,2.5,2,4c0.1,0.5-0.1,0.7-0.6,0.6C242.3,47.2,241.8,47.2,241.2,47.2z M150.5,50.5c0,2.9,0,5.8,0,8.7
	c0,0.8-0.2,1-0.9,0.9c-0.9-0.1-1.7-0.1-2.6,0c-0.6,0-0.8-0.1-0.8-0.8c0-5.2,0-10.4,0-15.6c0-0.8,0-1.6,0-2.4c0-0.5,0.1-0.6,0.6-0.6
	c1,0,2,0,3,0c0.6,0,0.8,0.1,0.8,0.8C150.5,44.5,150.5,47.5,150.5,50.5z M148.5,33.3c0.6,0.1,1.5-0.3,1.9,0.1s0.1,1.3,0.1,2
	c0,0.6,0.3,1.4-0.1,1.8c-0.4,0.4-1.2,0.1-1.8,0.1c-0.8,0-1.8,0.3-2.3-0.1c-0.4-0.5-0.1-1.5-0.1-2.2c0-1.7,0-1.7,1.7-1.7
	C147.9,33.3,148.5,33.3,148.5,33.3z"/>
</svg>
