<?xml version="1.0" encoding="utf-8"?>
<!-- Generator: Adobe Illustrator 25.4.1, SVG Export Plug-In . SVG Version: 6.00 Build 0)  -->
<svg version="1.1" id="layer" xmlns="http://www.w3.org/2000/svg" xmlns:xlink="http://www.w3.org/1999/xlink" x="0px" y="0px"
	 viewBox="0 0 652 152" style="enable-background:new 0 0 652 152;" xml:space="preserve">
<style type="text/css">
	.st0{fill:#FFFFFF;}
</style>
<g>
	<path class="st0" d="M108.6,87.6c-1.8,1.1-3.9,1.3-5.5,0.4c-2-1.2-3.2-3.9-3.2-7.6V69.1c0-5.4-2.1-9.3-5.7-10.3
		c-6.1-1.8-10.7,5.7-12.4,8.5L71,84.6V63.3c-0.1-4.9-1.7-7.8-4.7-8.7c-2-0.6-5-0.3-7.9,4.1L34.3,97.3c-3.2-6.1-4.9-12.9-4.9-19.8
		c0-23.3,18.7-42.2,41.6-42.2s41.6,18.9,41.6,42.2v0.1v0.1C112.8,82.2,111.4,85.8,108.6,87.6L108.6,87.6z M121.8,77.5L121.8,77.5
		v-0.1v-0.1C121.7,49,98.9,25.9,71,25.9c-28,0-50.8,23.1-50.8,51.6c0,28.4,22.8,51.6,50.8,51.6c12.9,0,25.1-4.9,34.5-13.8
		c1.9-1.8,2-4.7,0.2-6.6c-1.7-1.9-4.6-2-6.5-0.3c0,0,0,0-0.1,0.1c-7.6,7.2-17.8,11.3-28.3,11.3c-12.3,0-23.3-5.4-30.9-14L61.6,71
		v16.1c0,7.7,3,10.2,5.5,10.9c2.5,0.7,6.3,0.2,10.4-6.3l11.9-19.3c0.4-0.6,0.7-1.2,1.1-1.6v9.8c0,7.2,2.9,13,7.9,15.8
		c4.5,2.6,10.2,2.3,14.9-0.6C119.1,92,122.2,85.4,121.8,77.5z M192.6,59.9c1.2,0.7,2.3,2.4,2.3,3.9c0,2.4-2,4.4-4.3,4.4
		c-0.6,0-1.1-0.2-1.6-0.3c-2.7-2-6.1-3.3-9.7-3.3c-8.5,0-14.3,6.9-14.3,15.5s5.9,15.4,14.3,15.4c4.2,0,8-1.7,10.8-4.4
		c0.7-0.5,1.6-0.8,2.5-0.8c2.3,0,4.1,1.8,4.1,4.1c0,1.5-0.9,2.8-2,3.5c-4.1,3.5-9.6,5.8-15.3,5.8c-13,0-23.6-10.7-23.6-23.9
		s10.6-23.9,23.6-23.9C184.2,55.8,188.8,57.3,192.6,59.9z M216.4,69.9c8.9,0,16.3,7.5,16.3,16.8c0,9.2-7.5,17.1-16.3,17.1
		c-9.3,0-17-7.8-17-17.1C199.4,77.4,207.1,69.9,216.4,69.9z M216.3,95.5c3.9,0,7.2-3.7,7.2-8.7s-3.3-8.2-7.2-8.2
		c-4.2,0-7.7,3.1-7.7,8.2C208.6,91.7,212.1,95.5,216.3,95.5z M238.3,98.6V75c0-2.6,2-4.7,4.6-4.7c2.5,0,4.6,2.1,4.6,4.7v23.6
		c0,2.6-2.1,4.7-4.6,4.7S238.3,101.1,238.3,98.6z M237.6,61.4c0-3.1,2.4-5.5,5.3-5.5c3,0,5.4,2.5,5.4,5.5s-2.4,5.4-5.4,5.4
		C239.9,66.7,237.6,64.3,237.6,61.4z M265.1,85.8v12.8c0,2.6-2.1,4.7-4.6,4.7s-4.6-2.1-4.6-4.7V73.9c0-2,1.6-3.6,3.6-3.6
		s3.5,1.7,3.5,3.6c3.7-3.5,7-4,10.1-4c9.2,0,13.3,6.9,13.3,14.8v13.9c0,2.6-2.1,4.7-4.6,4.7s-4.6-2.1-4.6-4.7V85.8
		c0-4-0.5-7.4-6.3-7.4C266.8,78.4,265.1,81.8,265.1,85.8L265.1,85.8z M316.2,90.7c-1.1,0-1.8-0.5-2.4-1.2l-10.7-11.6v20.7
		c0,2.6-2.1,4.7-4.6,4.7s-4.6-2.1-4.6-4.7v-41c0.3-0.7,1-1.2,1.7-1.2c0.8,0,1.5,0.7,2,1.2l17.1,19.2c0.5,0.6,1.1,0.9,1.5,0.9
		c0.3,0,1-0.3,1.5-0.9l17.1-19.2c0.5-0.5,1.1-1.2,2-1.2c0.8,0,1.5,0.5,1.7,1.2v41c0,2.6-2,4.7-4.6,4.7c-2.5,0-4.6-2.1-4.6-4.7V77.9
		l-10.7,11.6C317.8,90.2,317.1,90.7,316.2,90.7L316.2,90.7z M360.4,95.5c4.1,0,7.6-3.7,7.6-8.7s-3.6-8.3-7.6-8.3s-7.3,3.4-7.3,8.3
		C353.1,91.6,356.3,95.5,360.4,95.5z M370.2,99.7l-0.2-1.1c-1.8,3.5-7.5,5.1-11.1,5.1c-8.6,0-15-7.8-15-17.1
		c0-9.2,6.5-16.8,15.5-16.8c1.5,0,6.7,0.4,10.7,5.1l0.2-1.1c0-2,1.5-3.6,3.5-3.6s3.6,1.7,3.6,3.6v25.8c0,2-1.6,3.6-3.6,3.6
		C371.7,103.3,370.2,101.6,370.2,99.7L370.2,99.7z M402.7,78.4h-1c-5.8,0.3-6.9,3.6-6.9,7.4v12.8c0,2.6-2.1,4.7-4.6,4.7
		s-4.6-2.1-4.6-4.7V73.9c0-2,1.6-3.6,3.6-3.6s3.5,1.7,3.5,3.6c3.4-3.2,6.2-3.9,9-4h0.9c2.2,0,4.2,1.9,4.2,4.3
		C406.9,76.4,404.9,78.4,402.7,78.4L402.7,78.4z M438.2,96.4c0.4,0.7,0.7,1.4,0.7,2.2c0,2.4-2.2,4.6-4.6,4.6c-1.6,0-3-1.2-4.1-2.6
		l-10.6-12.3v10.2c0,2.6-2.1,4.7-4.6,4.7s-4.6-2.1-4.6-4.7V61c0-2.6,2-4.7,4.6-4.7s4.6,2.1,4.6,4.7v23.4l10.6-11.7
		c1.1-1.2,2.4-2.5,4-2.5c2.3,0,4.4,2.1,4.4,4.5c0,0.7-0.2,1.5-0.6,2.1l-8.4,9.2L438.2,96.4L438.2,96.4z M456.2,78.5
		c-2.5,0-6.6,1.3-6.6,5.2h13.3C462.8,79.8,458.6,78.5,456.2,78.5L456.2,78.5z M468.2,89.6h-18.6c0,5.5,5.3,6.4,7.6,6.4
		c1.7,0,4.1-0.3,6-1.2c0.6-0.4,1.5-0.7,2.4-0.7c2,0,3.7,1.7,3.7,3.8c0,1.4-0.9,2.6-2,3.3c-2.8,2.1-6.5,2.6-10,2.6
		c-9.3,0-17-5-17-16.7c0-9.2,4.7-17.2,15.7-17.2c8.9,0,15.6,5.8,15.8,16.1C471.8,87.9,470.2,89.6,468.2,89.6L468.2,89.6z
		 M493.8,103.7h-2.5c-7,0-11.1-3.1-11.1-14V78.4h-2.4c-2.2,0-4.1-2-4.1-4.2c0-2.4,2-4.3,4.1-4.3h2.4v-8.7c0-2.6,2-4.7,4.6-4.7
		c2.5,0,4.6,2.1,4.6,4.7v8.7h3.8c2.2,0,4.1,1.9,4.1,4.3c0,2.2-2,4.2-4.1,4.2h-3.8v9.5c0,6.3,0.3,7.6,3.1,7.6h1.3
		c2.2,0,4.1,1.8,4.1,4.1C497.9,101.8,496,103.7,493.8,103.7L493.8,103.7z M538.3,59.9c1.2,0.7,2.3,2.4,2.3,3.9c0,2.4-2,4.4-4.3,4.4
		c-0.6,0-1.1-0.2-1.6-0.3c-2.7-2-6.1-3.3-9.7-3.3c-8.5,0-14.3,6.9-14.3,15.5s5.9,15.4,14.3,15.4c4.2,0,8-1.7,10.8-4.4
		c0.7-0.5,1.6-0.8,2.5-0.8c2.3,0,4.1,1.8,4.1,4.1c0,1.5-0.9,2.8-2,3.5c-4.1,3.5-9.6,5.8-15.3,5.8c-13,0-23.6-10.7-23.6-23.9
		s10.6-23.9,23.6-23.9C529.9,55.8,534.6,57.3,538.3,59.9L538.3,59.9z M561.6,95.5c4.1,0,7.6-3.7,7.6-8.7s-3.6-8.3-7.6-8.3
		c-4.1,0-7.3,3.4-7.3,8.3C554.3,91.6,557.6,95.5,561.6,95.5L561.6,95.5z M571.4,99.7l-0.2-1.1c-1.8,3.5-7.5,5.1-11.1,5.1
		c-8.6,0-15-7.8-15-17.1c0-9.2,6.5-16.8,15.5-16.8c1.5,0,6.7,0.4,10.7,5.1l0.2-1.1c0-2,1.5-3.6,3.5-3.6s3.6,1.7,3.6,3.6v25.8
		c0,2-1.6,3.6-3.6,3.6C572.9,103.3,571.4,101.6,571.4,99.7z M603.7,95.5c4.1,0,7.3-3.9,7.3-8.7c0-5-3.3-8.3-7.3-8.3
		c-4.1,0-7.6,3.3-7.6,8.3S599.6,95.5,603.7,95.5z M596.1,101v11.7c0,2.6-2.1,4.7-4.6,4.7s-4.6-2.1-4.6-4.7V73.9c0-2,1.6-3.6,3.6-3.6
		s3.5,1.7,3.5,4c3.4-3.5,7.6-4.4,10.8-4.4c8.9,0,15.5,7.5,15.5,16.8c0,9.2-6.3,17.1-15,17.1C602.6,103.7,598.6,102.9,596.1,101
		L596.1,101z"/>
</g>
</svg>
