<?xml version="1.0" encoding="UTF-8"?>
<svg width="96px" height="96px" viewBox="0 0 96 96" version="1.1" xmlns="http://www.w3.org/2000/svg" xmlns:xlink="http://www.w3.org/1999/xlink">
    <!-- Generator: Sketch 58 (84663) - https://sketch.com -->
    <title>Icons / cost</title>
    <desc>Created with Sketch.</desc>
    <g id="Icons-/-cost" stroke="none" stroke-width="1" fill="none" fill-rule="evenodd">
        <path d="M55.2204964,65.5457419 C60.6432486,60.4978071 64.0457419,53.2285344 64.0457419,45.1483554 C64.0457419,29.9038529 51.934691,17.5457419 36.9949526,17.5457419 C32.3038573,17.5457419 27.8916613,18.7642113 24.0457419,20.9079105" id="Oval" stroke="#FFFFFF" stroke-linecap="round" stroke-linejoin="round" transform="translate(44.045742, 41.545742) rotate(-90.000000) translate(-44.045742, -41.545742) "></path>
        <path d="M38.3383994,8 C38.3383994,22.2725155 29.975174,34.5422035 18,39.9368135" id="Stroke-4" stroke="#FFFFFF" stroke-width="2" stroke-linecap="round" stroke-linejoin="round" transform="translate(28.169200, 23.968407) rotate(200.000000) translate(-28.169200, -23.968407) "></path>
        <path d="M75.2790896,48.718377 C76.0594462,55.2444137 78.7225363,61.1990626 82.7082519,66.0222157 C84.0010197,67.5866066 85.4329318,69.0319606 86.9848757,70.3391654" id="Stroke-12" stroke="#00EAC7" stroke-linecap="round" stroke-linejoin="round" transform="translate(81.131983, 59.528771) rotate(-135.000000) translate(-81.131983, -59.528771) "></path>
        <path d="M74.1717339,33.8876009 C76.1323607,35.0455347 78.2206894,36.0094338 80.4101327,36.7527106 C82.5680864,37.4852973 84.824267,38.0035622 87.1532175,38.2820485" id="Stroke-12" stroke="#00EAC7" stroke-linecap="round" stroke-linejoin="round" transform="translate(80.662476, 36.084825) rotate(-135.000000) translate(-80.662476, -36.084825) "></path>
        <path d="M63.1747545,81 C68.5975066,75.9520652 72,68.6827925 72,60.6026135 C72,45.358111 59.8889491,33 44.9492107,33 C40.2581154,33 35.8459194,34.2184694 32,36.3621685" id="Oval" stroke="#FFFFFF" stroke-width="2" stroke-linecap="round" stroke-linejoin="round" transform="translate(52.000000, 57.000000) rotate(90.000000) translate(-52.000000, -57.000000) "></path>
        <path d="M26.8995203,75 C26.4029851,75 26,74.5970149 26,74.1004797 L26,66.8995203 C26,66.4029851 26.4029851,66 26.8995203,66 L34.0996802,66 C34.5962154,66 34.9992004,66.4029851 34.9992004,66.8995203 C34.9992004,67.3960554 34.5962154,67.7990405 34.0996802,67.7990405 L27.7990405,67.7990405 L27.7990405,74.1004797 C27.7990405,74.5970149 27.3960554,75 26.8995203,75" id="Fill-1" fill="#FFFFFF"></path>
        <path d="M47.4404973,34 L48.8792185,34 L48.8792185,37.3149171 C51.7566607,37.480663 54.8898757,38.6077348 56.3285968,41.3259669 L54.8259325,42.1878453 C53.6110124,39.8342541 50.5417407,39.0055249 48.1438721,38.9723757 C45.5222025,38.9723757 41.2699822,40.0994475 41.365897,43.5138122 C41.4298401,46.4309392 44.4351687,47.160221 48.2078153,47.8895028 C52.5239787,48.7513812 57,49.5469613 57,54.5524862 C56.9680284,58.9281768 52.4920071,60.6187845 48.8472469,60.7845304 L48.8472469,64 L47.4404973,64 L47.4404973,60.7845304 C44.1793961,60.6519337 40.5346359,59.359116 39,56.2430939 L40.5346359,55.4475138 C41.8774423,58.1657459 45.4262877,59.0607735 48.1438721,59.0607735 C50.8934281,59.0607735 55.2735346,58.0331492 55.2735346,54.519337 C55.3055062,51.038674 51.5968028,50.2762431 47.920071,49.5469613 C43.8277087,48.718232 39.7673179,47.9226519 39.6394316,43.5801105 C39.5435169,39.2707182 43.8596803,37.5138122 47.4404973,37.3149171 L47.4404973,34 Z" id="$" stroke="#FFFFFF" stroke-width="0.5" fill="#FFFFFF" fill-rule="nonzero" stroke-linejoin="round"></path>
    </g>
</svg>