<?xml version="1.0" encoding="UTF-8"?>
<svg width="96px" height="96px" viewBox="0 0 96 96" version="1.1" xmlns="http://www.w3.org/2000/svg" xmlns:xlink="http://www.w3.org/1999/xlink">
    <!-- Generator: Sketch 58 (84663) - https://sketch.com -->
    <title>Icons / DNS</title>
    <desc>Created with Sketch.</desc>
    <g id="Icons-/-DNS" stroke="none" stroke-width="1" fill="none" fill-rule="evenodd">
        <path d="M27,27 L55,27 C56.6568542,27 58,28.3431458 58,30 L58,33.0285256 C58,33.5808103 57.5522847,34.0285256 57,34.0285256 L32.0046627,34.0285256 C30.9000932,34.0285256 30.0046627,34.9239561 30.0046627,36.0285256 L30.0046627,48.4242294 L30.0046627,57 L24,57 C22.3431458,57 21,55.6568542 21,54 L21,33" id="Rectangle" stroke="#FFFFFF" stroke-linecap="round" stroke-linejoin="round"></path>
        <path d="M61,34 L32,34 C30.8954305,34 30,34.8954305 30,36 L30,48.3957038 L30,60" id="Rectangle" stroke="#FFFFFF" stroke-width="2"></path>
        <path d="M60.5,34 C62.1568542,34 64,35.3431458 64,37 L64,39 C64,39.5522847 63.5522847,40 63,40 L38,40 C37.4477153,40 37,40.4477153 37,41 L37,62 L33,62 C31.3431458,62 30,60.6568542 30,59" id="Rectangle" stroke="#FFFFFF" stroke-width="2" stroke-linejoin="round"></path>
        <path d="M44,46 L73.375,46" id="Line" stroke="#FFFFFF" stroke-linecap="round" stroke-linejoin="round"></path>
        <path d="M61,40 L70.5,40 C72.1568542,40 73.5,41.3431458 73.5,43 L73.5,47.9799912 L73.5,67 C73.5,68.6568542 72.1568542,70 70.5,70 L40,70 C38.3431458,70 37,68.6568542 37,67 C37,65.8954305 37,64.5620972 37,63 L37,47" id="Rectangle" stroke="#FFFFFF" stroke-width="2" stroke-linecap="round"></path>
        <path d="M40,32.5 L16,32.5 C14.3431458,32.5 13,31.1568542 13,29.5 L13,19" id="Rectangle" stroke="#00EAC7" stroke-linecap="round" stroke-linejoin="round" transform="translate(26.500000, 25.750000) scale(1, -1) translate(-26.500000, -25.750000) "></path>
        <path d="M80.25,81.5 C76.1114746,81.5 74.6948079,81.5 76,81.5 C74.3431458,81.5 73,80.1568542 73,78.5 L73,68" id="Rectangle" stroke="#00EAC7" stroke-linecap="round" stroke-linejoin="round" transform="translate(76.625000, 74.750000) rotate(-90.000000) translate(-76.625000, -74.750000) "></path>
        <circle id="Oval" fill="#FFFFFF" cx="64" cy="43" r="1"></circle>
        <circle id="Oval" fill="#FFFFFF" cx="67" cy="43" r="1"></circle>
        <circle id="Oval" fill="#FFFFFF" cx="70" cy="43" r="1"></circle>
        <path d="M56.98,13.6 C57.7400038,13.6 58.3399978,13.8799972 58.78,14.44 C59.2200022,15.0000028 59.44,15.8049948 59.44,16.855 C59.44,17.9050053 59.2200022,18.7099972 58.78,19.27 C58.3399978,19.8300028 57.7400038,20.11 56.98,20.11 C56.2199962,20.11 55.6183355,19.8333361 55.175,19.28 C54.7316644,18.7266639 54.51,17.9183387 54.51,16.855 C54.51,15.7916614 54.7316644,14.9833361 55.175,14.43 C55.6183355,13.8766639 56.2199962,13.6 56.98,13.6 Z M58.62,16.86 C58.62,16.0399959 58.4800014,15.4116688 58.2,14.975 C57.9199986,14.5383311 57.5116693,14.32 56.975,14.32 C56.4383306,14.32 56.0300014,14.5383311 55.75,14.975 C55.4699986,15.4116688 55.33,16.0383293 55.33,16.855 C55.33,17.6716708 55.4699986,18.2983311 55.75,18.735 C56.0300014,19.1716688 56.4383306,19.39 56.975,19.39 C57.5116693,19.39 57.9199986,19.1716688 58.2,18.735 C58.4800014,18.2983311 58.62,17.6733374 58.62,16.86 Z M63.100882,13.6 C63.8608858,13.6 64.4608798,13.8799972 64.900882,14.44 C65.3408842,15.0000028 65.560882,15.8049948 65.560882,16.855 C65.560882,17.9050053 65.3408842,18.7099972 64.900882,19.27 C64.4608798,19.8300028 63.8608858,20.11 63.100882,20.11 C62.3408782,20.11 61.7392175,19.8333361 61.295882,19.28 C60.8525464,18.7266639 60.630882,17.9183387 60.630882,16.855 C60.630882,15.7916614 60.8525464,14.9833361 61.295882,14.43 C61.7392175,13.8766639 62.3408782,13.6 63.100882,13.6 Z M64.740882,16.86 C64.740882,16.0399959 64.6008834,15.4116688 64.320882,14.975 C64.0408806,14.5383311 63.6325513,14.32 63.095882,14.32 C62.5592126,14.32 62.1508834,14.5383311 61.870882,14.975 C61.5908806,15.4116688 61.450882,16.0383293 61.450882,16.855 C61.450882,17.6716708 61.5908806,18.2983311 61.870882,18.735 C62.1508834,19.1716688 62.5592126,19.39 63.095882,19.39 C63.6325513,19.39 64.0408806,19.1716688 64.320882,18.735 C64.6008834,18.2983311 64.740882,17.6733374 64.740882,16.86 Z M69.2217639,13.6 C69.9817677,13.6 70.5817617,13.8799972 71.0217639,14.44 C71.4617661,15.0000028 71.6817639,15.8049948 71.6817639,16.855 C71.6817639,17.9050053 71.4617661,18.7099972 71.0217639,19.27 C70.5817617,19.8300028 69.9817677,20.11 69.2217639,20.11 C68.4617601,20.11 67.8600995,19.8333361 67.4167639,19.28 C66.9734284,18.7266639 66.7517639,17.9183387 66.7517639,16.855 C66.7517639,15.7916614 66.9734284,14.9833361 67.4167639,14.43 C67.8600995,13.8766639 68.4617601,13.6 69.2217639,13.6 Z M70.8617639,16.86 C70.8617639,16.0399959 70.7217653,15.4116688 70.4417639,14.975 C70.1617625,14.5383311 69.7534333,14.32 69.2167639,14.32 C68.6800946,14.32 68.2717653,14.5383311 67.9917639,14.975 C67.7117625,15.4116688 67.5717639,16.0383293 67.5717639,16.855 C67.5717639,17.6716708 67.7117625,18.2983311 67.9917639,18.735 C68.2717653,19.1716688 68.6800946,19.39 69.2167639,19.39 C69.7534333,19.39 70.1617625,19.1716688 70.4417639,18.735 C70.7217653,18.2983311 70.8617639,17.6733374 70.8617639,16.86 Z M73.2426459,20.09 C73.0759784,20.09 72.9376464,20.0350005 72.8276459,19.925 C72.7176453,19.8149995 72.6626459,19.6816674 72.6626459,19.525 C72.6626459,19.3683325 72.7176453,19.2350006 72.8276459,19.125 C72.9376464,19.0149994 73.077645,18.96 73.2476459,18.96 C73.4176467,18.96 73.559312,19.0149994 73.6726459,19.125 C73.7859798,19.2350006 73.8426459,19.3683325 73.8426459,19.525 C73.8426459,19.6816674 73.7859798,19.8149995 73.6726459,19.925 C73.559312,20.0350005 73.4159801,20.09 73.2426459,20.09 Z" id="000." fill="#FFFFFF" fill-rule="nonzero"></path>
        <circle id="Oval" stroke="#979797" stroke-width="4" cx="20" cy="77" r="2"></circle>
    </g>
</svg>