<svg width="32" height="32" viewBox="0 0 32 32" fill="none" xmlns="http://www.w3.org/2000/svg">
<path fill-rule="evenodd" clip-rule="evenodd" d="M8 2L26 2L27 3L27 25L26 26L25 26L25 28L27 28L27 30L8 30C6.34313 30 5 28.6568 5 27L5 5C5 3.34315 6.34315 2 8 2ZM23 28L23 26L7.99999 26C7.44771 26 7 26.4477 7 27C7 27.5523 7.44772 28 8 28L23 28ZM7 24.1707C7.31277 24.0602 7.64935 24 7.99999 24L25 24L25 4L8 4C7.44772 4 7 4.44772 7 5L7 24.1707ZM15 9.10002C14.3616 9.2296 13.7674 9.48082 13.2426 9.82842L12.4644 9.05028L11.0502 10.4645L11.8284 11.2426C11.4808 11.7674 11.2296 12.3616 11.1 13L10 13L10 15L11.1 15C11.2296 15.6384 11.4808 16.2326 11.8284 16.7574L11.0503 17.5355L12.4645 18.9497L13.2426 18.1716C13.7674 18.5192 14.3616 18.7704 15 18.9L15 20L17 20L17 18.9C17.6384 18.7704 18.2326 18.5192 18.7574 18.1716L19.5355 18.9497L20.9497 17.5355L20.1716 16.7574C20.5192 16.2326 20.7704 15.6384 20.9 15L22 15L22 13L20.9 13C20.7704 12.3616 20.5192 11.7674 20.1716 11.2426L20.9497 10.4645L19.5355 9.05025L18.7574 9.8284C18.2326 9.48081 17.6384 9.2296 17 9.10002L17 8L15 8L15 9.10002ZM13 14C13 12.3431 14.3431 11 16 11C17.6569 11 19 12.3431 19 14C19 15.6569 17.6569 17 16 17C14.3431 17 13 15.6569 13 14Z" fill="#fff"/>
</svg>
