<svg width="24" height="24" viewBox="0 0 24 24" fill="none" xmlns="http://www.w3.org/2000/svg">
<path fill-rule="evenodd" clip-rule="evenodd" d="M6.25 17C6.25 17.1989 6.32902 17.3897 6.46967 17.5303C6.61032 17.671 6.80109 17.75 7 17.75L16.25 17.75V19.25H4.75L4.75 7.75003H6.25L6.25 17ZM6.25 6.25003L4 6.25003C3.58579 6.25003 3.25 6.58582 3.25 7.00003V20C3.25 20.1989 3.32902 20.3897 3.46967 20.5304C3.61032 20.671 3.80109 20.75 4 20.75H17C17.4142 20.75 17.75 20.4142 17.75 20V17.75H20C20.4142 17.75 20.75 17.4142 20.75 17V4C20.75 3.58579 20.4142 3.25 20 3.25H7C6.58579 3.25 6.25 3.58579 6.25 4V6.25003ZM19.25 16.25L7.75 16.25L7.75 4.75L19.25 4.75V16.25ZM13.1429 7.25C12.3736 7.25 11.75 7.8736 11.75 8.64286V9V9.75H10.25V9V8.64286C10.25 7.04518 11.5452 5.75 13.1429 5.75H14.0133C15.5247 5.75 16.75 6.97525 16.75 8.48668C16.75 9.51281 16.176 10.4527 15.2631 10.9213L14.7841 11.1672C14.3166 11.4072 14.0227 11.8884 14.0227 12.4138V12.5V13.25H12.5227V12.5V12.4138C12.5227 11.326 13.1313 10.3296 14.099 9.83278L14.5781 9.58687C14.9906 9.37511 15.25 8.95038 15.25 8.48668C15.25 7.80368 14.6963 7.25 14.0133 7.25H13.1429ZM13.3 15.25C13.7142 15.25 14.05 14.9142 14.05 14.5C14.05 14.0858 13.7142 13.75 13.3 13.75H13.29C12.8758 13.75 12.54 14.0858 12.54 14.5C12.54 14.9142 12.8758 15.25 13.29 15.25H13.3Z" fill="#ffffff"/>
</svg>
