<svg width="24" height="24" viewBox="0 0 24 24" fill="none" xmlns="http://www.w3.org/2000/svg">
<path fill-rule="evenodd" clip-rule="evenodd" d="M11.2615 2.48385C11.5564 1.84458 12.4649 1.84458 12.7598 2.48385L15.1049 7.56792L20.6648 8.22713C21.3639 8.31002 21.6446 9.17412 21.1278 9.6521L17.0172 13.4534L18.1083 18.9449C18.2455 19.6354 17.5105 20.1695 16.8962 19.8256L12.0107 17.0909L7.12512 19.8256C6.51082 20.1695 5.77578 19.6354 5.91298 18.9449L7.00413 13.4534L2.89355 9.6521C2.37669 9.17412 2.65745 8.31002 3.35655 8.22713L8.91645 7.56792L11.2615 2.48385ZM12.0107 4.44096L10.1027 8.5774L9.92686 8.95862L9.50996 9.00805L4.98638 9.5444L8.33078 12.6372L8.63901 12.9222L8.55719 13.334L7.66942 17.8019L11.6443 15.5769L12.0107 15.3719L12.377 15.5769L16.3519 17.8019L15.4641 13.334L15.3823 12.9222L15.6905 12.6372L19.0349 9.5444L14.5113 9.00805L14.0944 8.95862L13.9186 8.5774L12.0107 4.44096Z" fill="#ffffff"/>
</svg>
