<?xml version="1.0" encoding="utf-8"?>
<!-- Generator: Adobe Illustrator 25.4.1, SVG Export Plug-In . SVG Version: 6.00 Build 0)  -->
<svg version="1.1" id="Layer_1" xmlns="http://www.w3.org/2000/svg" xmlns:xlink="http://www.w3.org/1999/xlink" x="0px" y="0px"
	 viewBox="0 0 719 175" style="enable-background:new 0 0 719 175;" xml:space="preserve">
<style type="text/css">
	.st0{opacity:0.65;fill:#FFFFFF;}
	.st1{fill:#FFFFFF;}
</style>
<g id="icon">
	<path class="st0" d="M97.2,33.9L43.6,87.5l17.1,17.1L114.3,51l36.5,36.5l-53.6,53.6l17.1,17.1l53.6-53.6c9.4-9.4,9.4-24.8,0-34.2
		l-12.2-12.2l-41.4-41.4C114.3,16.8,97.2,33.9,97.2,33.9z"/>
	<path class="st1" d="M24.2,87.5l80.4-80.4c-9.4-9.4-24.8-9.4-34.2,0L7.1,70.4c-9.4,9.4-9.4,24.8,0,34.2l63.3,63.3
		c9.4,9.4,24.8,9.4,34.2,0l-26.8-26.8l53.6-53.6l-17.1-17.1L60.7,124L24.2,87.5z"/>
</g>
<g id="forkast">
	<path class="st1" d="M438,127.4v22.4h-23V24.5h23v69.1l29.4-32.1h30.5l-31.8,35.2l34.9,53.2h-27.2l-23.7-35.7L438,127.4L438,127.4z
		"/>
	<path class="st1" d="M562,141.6c-3,3.1-6.8,5.5-11.3,7.3s-9.9,2.7-16.2,2.7c-4.8,0-9.3-0.6-13.7-1.8s-8.2-3-11.6-5.3
		s-6.1-5.3-8.1-8.9c-2-3.6-3-7.8-3-12.6c0-4.9,1-9,3-12.3s4.6-5.9,8-7.9c3.4-2,7.2-3.5,11.7-4.5c4.4-1,9.1-1.7,14.1-2.1
		c3.7-0.3,7.1-0.7,10.3-1.2c3.1-0.5,5.8-1.1,8.1-1.8s4-1.7,5.3-2.8c1.3-1.1,1.9-2.6,1.9-4.5c0-2.3-1.4-4.3-4.3-5.9
		c-2.8-1.7-6.9-2.5-12.1-2.5c-2.1,0-4.2,0.2-6.3,0.7s-4,1.1-5.8,2.1c-1.8,0.9-3.4,2.1-4.8,3.5s-2.3,3.1-2.8,4.9h-23
		c0.6-4.2,2-8.1,4.3-11.7c2.3-3.5,5.2-6.6,8.9-9.3c3.7-2.6,7.9-4.7,12.8-6.2s10.3-2.2,16.2-2.2c6,0,11.2,0.6,15.5,1.7
		c4.3,1.1,7.9,2.7,10.8,4.5c2.9,1.9,5.2,4,7,6.3c1.7,2.3,3,4.5,3.9,6.8c0.9,2.2,1.4,4.3,1.7,6.3c0.2,1.9,0.3,3.5,0.3,4.6v60.4h-20.7
		C561.9,149.8,562,144.9,562,141.6L562,141.6z M561.3,107.3c-2.4,1.6-5.5,2.8-9.2,3.6c-3.7,0.8-7.9,1.5-12.7,2.1
		c-5.7,0.6-10.2,1.6-13.5,3s-4.9,3.8-4.9,7.1c0,2.5,1.4,4.5,4.1,6.1c2.7,1.5,6.4,2.3,11.1,2.3c3.5,0,6.8-0.3,9.8-0.9
		c3-0.6,5.7-1.5,7.9-2.8c2.3-1.3,4-3,5.3-5s1.9-4.4,1.9-7.3v-8.2H561.3z M668.6,134c-2,3.7-4.7,6.8-8.1,9.4
		c-3.5,2.6-7.6,4.7-12.4,6.2c-4.8,1.5-10,2.2-15.7,2.2s-11-0.7-15.8-2.1c-4.9-1.4-9.2-3.5-12.9-6.2s-6.8-5.9-9.1-9.7
		c-2.4-3.8-3.9-8.1-4.6-12.9h23.3c0.8,1.9,1.9,3.5,3.4,4.8c1.4,1.3,3,2.3,4.8,3.2c1.7,0.9,3.6,1.5,5.5,1.8s3.7,0.5,5.5,0.5
		c4.6,0,8.5-0.7,11.6-2s4.6-3.3,4.6-5.9c0-1.3-0.2-2.3-0.7-3.3c-0.5-0.9-1.4-1.7-2.8-2.4s-3.3-1.3-5.7-2c-2.4-0.6-5.6-1.2-9.6-1.8
		c-4.1-0.6-8.3-1.3-12.6-2.3c-4.4-1-8.4-2.4-12.1-4.4c-3.7-1.9-6.8-4.5-9.1-7.6c-2.4-3.1-3.6-7.2-3.6-12.1c0-3.4,0.8-6.9,2.3-10.3
		c1.6-3.4,3.9-6.5,7-9.1s7.1-4.8,11.9-6.4c4.8-1.7,10.5-2.5,17-2.5c5.1,0,9.9,0.7,14.3,2s8.3,3.2,11.7,5.6s6.2,5.3,8.4,8.7
		c2.2,3.4,3.6,7.2,4.3,11.3h-23.7c-0.7-2.1-2.3-3.8-4.8-5.2c-2.5-1.4-5.9-2.1-10.2-2.1c-5.3,0-9.2,0.8-11.5,2.3s-3.5,3.1-3.5,4.7
		c0,2.3,1.6,3.9,4.7,5c3.1,1,7.5,2,13.1,2.9s10.7,2,15.4,3.2s8.7,2.8,12,4.8s6,4.6,7.9,7.7s2.8,7.1,2.8,11.9
		C671.6,126.4,670.6,130.4,668.6,134L668.6,134z M715.2,129.1c-3.9-0.2-7-1.3-9.2-3.3c-2.8-2.5-4.3-6.9-4.3-13V81.5h16.2v-20h-16.2
		V39h-23v73.6c0,6.1,0.9,11.5,2.6,16.4c1.7,4.9,4.3,8.9,7.7,12.3c3.4,3.3,7.5,5.7,12.5,7.2c3.2,0.9,6.7,1.4,10.5,1.5h6.9v-20.9
		H715.2z M401.7,59.3c-8.8,0-16.7,3.7-22.4,9.6v-7.4h-22.9v88.3h23v-46.6c0-12.3,10-22.3,22.3-22.3v-0.1h5.1V59.2L401.7,59.3
		L401.7,59.3z M345.4,87.1c-2.4-5.7-5.6-10.6-9.7-14.8c-4.1-4.2-8.9-7.5-14.3-9.8S310.1,59,303.9,59c-6.3,0-12.1,1.2-17.5,3.5
		c-5.4,2.4-10.2,5.6-14.2,9.8c-4.1,4.2-7.3,9.1-9.6,14.8c-2.4,5.7-3.6,11.8-3.6,18.5s1.2,12.8,3.6,18.4s5.6,10.5,9.6,14.6
		c4.1,4.1,8.8,7.4,14.2,9.7c5.4,2.4,11.3,3.5,17.5,3.5s12.1-1.2,17.5-3.5c5.4-2.4,10.2-5.6,14.3-9.7c4.1-4.1,7.4-9,9.7-14.6
		c2.4-5.6,3.6-11.8,3.6-18.4C348.9,98.9,347.7,92.7,345.4,87.1z M324.2,114.5c-1.2,2.8-2.8,5.1-4.8,7.2c-2,2-4.4,3.6-7,4.8
		c-2.7,1.2-5.5,1.7-8.6,1.7s-5.9-0.6-8.6-1.7c-2.7-1.2-5-2.7-7-4.8c-2-2-3.6-4.4-4.7-7.2c-1.2-2.8-1.7-5.8-1.7-9
		c0-3.3,0.6-6.3,1.7-9.1c1.2-2.8,2.7-5.2,4.7-7.3c2-2.1,4.3-3.7,7-4.8c2.7-1.2,5.5-1.7,8.6-1.7s5.9,0.6,8.6,1.7c2.7,1.2,5,2.8,7,4.8
		c2,2.1,3.6,4.5,4.8,7.3c1.2,2.8,1.7,5.8,1.7,9.1C326,108.7,325.4,111.7,324.2,114.5z M253.8,24.5c-4.3,0-8.2,0.5-11.8,1.7
		c-4.9,1.6-9.1,4.1-12.5,7.5s-6,7.5-7.7,12.4S219.1,56.2,219,62v88h23V81.9h16.2V61.8H242c0-6.2,1.4-10.5,4.3-12.9
		c2.2-1.8,5.1-2.8,8.8-3h3.1V24.5H253.8L253.8,24.5z"/>
</g>
</svg>
