<svg width="204" height="63" viewBox="0 0 204 63" fill="none" xmlns="http://www.w3.org/2000/svg">
<path d="M24.3627 31.355L23.8228 30.8129C23.4154 30.4059 22.7147 30.6941 22.7147 31.2715V39.0132C22.7147 39.3711 23.0075 39.6616 23.3664 39.6616H31.1095C31.6863 39.6616 31.978 38.9622 31.567 38.5547C31.4457 38.4331 31.3776 38.2683 31.3776 38.0966C31.3776 37.9248 31.4457 37.7601 31.567 37.6384L39.8033 29.3797C40.0561 29.1272 40.0561 28.7172 39.8033 28.4629L39.0531 27.7154C38.6455 27.3084 38.9361 26.6089 39.5117 26.6089H47.2505C47.6083 26.6089 47.9009 26.8995 47.9009 27.2574V34.9995C47.9009 35.5762 47.1983 35.8657 46.7907 35.4581L46.268 34.9366C46.0118 34.6764 45.6042 34.6764 45.3529 34.9366L31.468 48.8155C31.2157 49.067 30.8057 49.067 30.5499 48.8155L13.5622 31.8269C13.5015 31.7667 13.4533 31.6951 13.4204 31.6161C13.3875 31.5372 13.3706 31.4526 13.3706 31.3671C13.3706 31.2816 13.3875 31.197 13.4204 31.118C13.4533 31.0391 13.5015 30.9675 13.5622 30.9073L37.0794 7.39062C37.331 7.13756 37.331 6.72457 37.0794 6.47238L31.5496 0.94287C31.4274 0.82182 31.2624 0.753906 31.0904 0.753906C30.9185 0.753906 30.7535 0.82182 30.6313 0.94287L0.189239 31.3883C-0.0630798 31.6415 -0.0630798 32.0545 0.189239 32.3065L30.6313 62.7486C30.8837 63.0002 31.298 63.0002 31.5496 62.7486L61.9905 32.3065C62.2419 32.0535 62.2419 31.6426 61.9905 31.3903L44.0811 13.4806C43.8306 13.2287 43.4186 13.2287 43.1648 13.4806L25.2822 31.3552C25.2221 31.4159 25.1505 31.4641 25.0716 31.497C24.9927 31.5299 24.908 31.5468 24.8226 31.5468C24.7371 31.5468 24.6524 31.5299 24.5736 31.497C24.4947 31.4641 24.423 31.4159 24.3629 31.3552L24.3627 31.355ZM164.884 39.0577C164.099 39.0577 163.422 39.339 162.855 39.9045C162.294 40.4704 162.008 41.1386 162.008 41.9122C162.008 43.0916 162.606 44.009 163.794 44.6645C165.098 45.0202 166.145 44.7887 166.933 43.9821C167.503 43.4127 167.784 42.73 167.784 41.9345C167.784 41.1292 167.503 40.4561 166.933 39.9047C166.368 39.3428 165.689 39.062 164.882 39.062L164.884 39.0585V39.0577ZM118.625 17.1754H116.478C115.551 17.1754 114.797 17.9237 114.797 18.8508V20.048C112.514 17.6735 109.929 16.4857 107.042 16.4857C103.707 16.4857 100.925 17.7265 98.7066 20.2013C96.4819 22.6761 95.374 25.7696 95.374 29.4838C95.374 33.2615 96.4819 36.4153 98.7001 38.9429C100.943 41.419 103.771 42.6567 107.197 42.6567C109.906 42.6567 112.441 41.5506 114.797 39.344V41.711C114.797 42.8608 115.732 43.7953 116.88 43.7953H120.545V19.0937C120.545 18.0369 119.683 17.1754 118.625 17.1754ZM113.2 35.3549C111.894 36.8133 110.184 37.5414 108.063 37.5414C106.077 37.5414 104.431 36.7876 103.13 35.2799C101.855 33.7905 101.22 31.8524 101.22 29.48C101.22 27.2608 101.874 25.3917 103.178 23.8846C104.5 22.3914 106.145 21.6488 108.112 21.6488C110.198 21.6488 111.891 22.3845 113.197 23.8662C114.504 25.3737 115.157 27.2864 115.157 29.6097C115.157 31.9332 114.504 33.8457 113.197 35.3569L113.201 35.355L113.2 35.3549ZM95.372 21.355V18.9058C95.372 17.9497 94.5982 17.1796 93.6417 17.1796H91.3798C90.4268 17.1796 89.6515 17.9461 89.6515 18.9058V19.9756C87.5827 17.6506 84.9888 16.486 81.8695 16.486C78.3094 16.486 75.4409 17.8292 73.2724 20.5046C71.2542 23.0269 70.2458 26.0985 70.2458 29.7102C70.2458 33.4225 71.3331 36.5197 73.5043 38.9926C75.6576 41.44 78.4201 42.6536 81.7946 42.6536C84.758 42.6536 87.3792 41.4967 89.6513 39.1731V42.6319C89.6513 47.7711 87.5583 50.3408 83.3718 50.3408C81.0991 50.3408 79.3727 49.5671 78.1862 48.0232C77.8836 47.6325 77.6324 47.1435 77.4326 46.5594C77.1522 45.7417 76.3747 45.1979 75.5131 45.1979H73.3448C72.2514 45.1979 71.4387 46.2382 71.7153 47.2967C72.3083 49.5487 73.4534 51.3811 75.1583 52.7991C77.2942 54.5808 80.0171 55.4734 83.3207 55.4734C87.2363 55.4734 90.3141 54.1812 92.5537 51.6078C93.7402 50.2682 94.5339 48.6657 94.9419 46.8006C95.078 46.1254 95.1844 45.3391 95.2594 44.4465C95.3342 43.5594 95.3712 42.5299 95.3712 41.3584V37.7594C93.7701 35.4506 92.9643 32.6929 92.9643 29.481C92.9643 26.3254 93.7685 23.6225 95.3712 21.3576V21.3557L95.372 21.355ZM88.1246 35.1596C86.8537 36.7474 85.127 37.5412 82.937 37.5412C80.7498 37.5412 79.0379 36.7524 77.7978 35.1741C76.6643 33.7361 76.0965 31.8852 76.0965 29.6333C76.0965 27.3427 76.6641 25.4776 77.7978 24.0378C79.0554 22.4298 80.7654 21.6253 82.937 21.6253C84.9703 21.6253 86.641 22.3623 87.9449 23.8353C89.234 25.2753 89.8809 27.1993 89.8809 29.6101C89.8809 31.864 89.2942 33.7109 88.1244 35.1563V35.1601L88.1246 35.1596ZM142.938 17.1936V17.1755H131.071V9.90983C131.071 8.97555 130.316 8.21809 129.379 8.21809H127.063C126.118 8.21809 125.351 8.98462 125.351 9.9301V17.1756H122.908V22.5121H125.348V43.7922H128.611C128.933 43.7929 129.253 43.7299 129.552 43.6067C129.85 43.4835 130.121 43.3025 130.349 43.0743C130.578 42.846 130.759 42.5749 130.882 42.2765C131.005 41.9782 131.068 41.6584 131.068 41.3356V22.5156H136.935C137.395 21.6321 137.964 20.8093 138.627 20.0661C139.843 18.7412 141.28 17.7812 142.934 17.1936H142.938H142.938ZM172.135 8.21797C171.12 8.21797 170.247 8.58308 169.518 9.31305C168.791 10.041 168.422 10.908 168.422 11.9064C168.422 12.9598 168.788 13.8429 169.518 14.5785C170.247 15.3065 171.131 15.6699 172.164 15.6699C173.198 15.6699 174.069 15.3067 174.779 14.5764C175.507 13.8429 175.876 12.967 175.876 11.9321C175.876 10.9007 175.511 10.025 174.781 9.3169C174.049 8.58332 173.168 8.21797 172.135 8.21797ZM173.294 19.9786H171.218C170.155 19.9786 169.288 20.8403 169.288 21.9095V40.0761C169.725 40.5891 169.934 41.1932 169.934 41.8957C169.934 42.5981 169.725 43.2095 169.288 43.7262V44.7485H172.971C174.099 44.7485 175.011 43.834 175.011 42.7041V21.6906C175.011 20.745 174.241 19.9786 173.292 19.9786H173.294ZM200.186 23.4867C197.609 20.9624 194.471 19.6994 190.776 19.6994C187.096 19.6994 183.975 20.9516 181.417 23.4647C178.858 25.9722 177.577 29.0166 177.577 32.5936C177.577 36.3898 178.829 39.5436 181.34 42.0546C183.852 44.5953 186.965 45.8672 190.673 45.8672C194.418 45.8672 197.581 44.6224 200.16 42.1293C202.715 39.6162 204 36.5099 204 32.7961C204 29.1149 202.728 26.0122 200.186 23.4827V23.4867ZM196.138 38.5944C194.802 40.0379 193.013 40.7516 190.776 40.7516C188.551 40.7516 186.764 40.0271 185.407 38.565C184.085 37.1271 183.423 35.1634 183.423 32.6922C183.423 30.389 184.105 28.5055 185.461 27.049C186.815 25.5925 188.586 24.8606 190.776 24.8606C192.993 24.8606 194.784 25.5925 196.138 27.049C197.478 28.4871 198.149 30.4146 198.149 32.8163C198.149 35.229 197.477 37.1488 196.138 38.5905V38.5944Z" fill="white"/>
<path d="M145.07 37.5932C143.89 36.3994 143.232 34.7715 143.08 32.7384H159.48C160.228 32.7384 160.845 32.1398 160.856 31.3934C160.856 27.2998 159.805 24.1095 157.704 21.8023C155.582 19.4813 152.698 18.3203 149.055 18.3203C145.449 18.3203 142.547 19.5175 140.361 21.9049C138.189 24.3321 137.105 27.5002 137.105 31.4169C137.105 35.3666 138.226 38.5383 140.459 40.9258C142.022 42.5865 143.936 43.663 146.208 44.165C147.161 44.3893 148.15 44.506 149.149 44.4914C153.224 44.5756 156.766 44.6594 160.84 44.7434L160.846 44.1465C160.347 43.6047 160.097 42.9513 160.097 42.1882C160.097 41.4474 160.358 40.8104 160.867 40.2594L160.87 39.5348C157.655 39.4544 149.869 39.3777 149.559 39.3777C147.734 39.3777 146.234 38.7883 145.07 37.5967V37.5932H145.07ZM144.274 26.1538C144.634 25.5952 145.059 25.117 145.561 24.7192C146.062 24.3159 146.614 24.0146 147.227 23.8031C147.836 23.5913 148.49 23.4853 149.187 23.4853C152.235 23.4853 154.158 25.0093 154.961 28.0592H143.462C143.649 27.349 143.92 26.7139 144.274 26.1535V26.1538Z" fill="white"/>
</svg>
