<!-- Generated by IcoMoon.io -->
<svg version="1.1" xmlns="http://www.w3.org/2000/svg" width="32" height="32" viewBox="0 0 32 32">
<title>roadmap</title>
<path d="M22 8c0-1.105 0.895-2 2-2s2 0.895 2 2c0 1.105-0.895 2-2 2s-2-0.895-2-2zM24 4c-1.864 0-3.43 1.275-3.874 3h-8.252c-0.444-1.725-2.010-3-3.874-3-2.209 0-4 1.791-4 4s1.791 4 4 4c1.864 0 3.43-1.275 3.874-3h8.252c0.095 0.367 0.24 0.714 0.428 1.032l-10.522 10.522c-0.596-0.352-1.29-0.554-2.032-0.554-2.209 0-4 1.791-4 4s1.791 4 4 4c1.864 0 3.43-1.275 3.874-3h8.126v2l1 1h6l1-1v-6l-1-1h-6l-1 1v2h-8.126c-0.094-0.367-0.24-0.714-0.428-1.032l10.522-10.522c0.595 0.352 1.29 0.554 2.032 0.554 2.209 0 4-1.791 4-4s-1.791-4-4-4zM6 24c0-1.105 0.895-2 2-2s2 0.895 2 2c0 1.105-0.895 2-2 2s-2-0.895-2-2zM26 26h-4v-4h4v4zM6 8c0-1.105 0.895-2 2-2s2 0.895 2 2c0 1.105-0.895 2-2 2s-2-0.895-2-2z" fill="#fff"></path>
</svg>
