<!-- Generated by IcoMoon.io -->
<svg version="1.1" xmlns="http://www.w3.org/2000/svg" width="32" height="32" viewBox="0 0 32 32">
<title>team</title>
<path d="M8 10c0-2.209 1.791-4 4-4s4 1.791 4 4-1.791 4-4 4c-2.209 0-4-1.791-4-4zM16.352 14.13c1.021-1.076 1.648-2.53 1.648-4.13 0-3.314-2.686-6-6-6s-6 2.686-6 6c0 1.601 0.627 3.055 1.648 4.13-3.219 0.63-5.648 3.466-5.648 6.87v7h2v-7c0-2.761 2.239-5 5-5h6c2.761 0 5 2.239 5 5v7h2v-7c0-1.572-0.518-3.023-1.393-4.191 0.555-0.519 1.287-0.809 2.049-0.809h2.343c1.657 0 3 1.343 3 3v5h2v-5c0-1.996-1.17-3.719-2.861-4.521 0.539-0.682 0.861-1.543 0.861-2.479 0-2.209-1.791-4-4-4s-4 1.791-4 4c0 0.886 0.288 1.705 0.775 2.367-0.583 0.237-1.121 0.583-1.583 1.027-0.825-0.618-1.791-1.058-2.841-1.264zM22 12c0-1.105 0.895-2 2-2s2 0.895 2 2c0 1.105-0.895 2-2 2s-2-0.895-2-2z" fill="#fff"></path>
</svg>
