<svg width="24" height="24" viewBox="0 0 24 24" fill="none" xmlns="http://www.w3.org/2000/svg">
<path fill-rule="evenodd" clip-rule="evenodd" d="M2.25 5C2.25 4.58579 2.58579 4.25 3 4.25H19C19.4142 4.25 19.75 4.58579 19.75 5V8.25H21C21.4142 8.25 21.75 8.58579 21.75 9V15C21.75 15.4142 21.4142 15.75 21 15.75H19.75V19C19.75 19.4142 19.4142 19.75 19 19.75H3C2.58579 19.75 2.25 19.4142 2.25 19V5ZM18.25 5.75V8.25H12C11.5858 8.25 11.25 8.58579 11.25 9V15C11.25 15.4142 11.5858 15.75 12 15.75H18.25V18.25H3.75V5.75H18.25ZM20.25 14.25H19H12.75V9.75H19H20.25V14.25ZM14.01 12.75C14.4242 12.75 14.76 12.4142 14.76 12C14.76 11.5858 14.4242 11.25 14.01 11.25H14C13.5858 11.25 13.25 11.5858 13.25 12C13.25 12.4142 13.5858 12.75 14 12.75H14.01Z" fill="white"/>
</svg>
