<!-- Generated by IcoMoon.io -->
<svg version="1.1" xmlns="http://www.w3.org/2000/svg" width="32" height="32" viewBox="0 0 32 32">
<title>ecosystem</title>
<path d="M10 3l-1-1h-6l-1 1v6l1 1h6.032l2.089 2.507c-0.706 0.984-1.121 2.19-1.121 3.493s0.415 2.509 1.121 3.493l-2.089 2.507h-6.032l-1 1v6l1 1h6l1-1v-4.99h-2v3.99h-4v-4h5.968l2.578-3.093c0.977 0.689 2.168 1.093 3.454 1.093s2.477-0.405 3.454-1.093l2.578 3.093h5.968v4h-4v-3.99h-2v4.99l1 1h6l1-1v-6l-1-1h-6.032l-2.089-2.507c0.705-0.984 1.121-2.19 1.121-3.493s-0.415-2.509-1.121-3.493l2.089-2.507h6.032l1-1v-6l-1-1h-6l-1 1v4.99h2v-3.99h4v4h-5.968l-2.578 3.093c-0.977-0.689-2.168-1.093-3.454-1.093s-2.477 0.405-3.454 1.093l-2.578-3.093h-5.968v-4h4v3.99h2v-4.99zM12 16c0-2.209 1.791-4 4-4s4 1.791 4 4-1.791 4-4 4c-2.209 0-4-1.791-4-4z" fill="#fff"></path>
</svg>
