<svg width="24" height="24" viewBox="0 0 24 24" fill="none" xmlns="http://www.w3.org/2000/svg">
<path fill-rule="evenodd" clip-rule="evenodd" d="M14.25 4.75H15H15.75V3.25H15H8.99998H8.24998V4.75L8.99998 4.75H9.74998V5V7.92492C9.74998 9.13408 9.39923 10.3173 8.74026 11.3311L4.37539 18.0463C3.61867 19.2105 4.45415 20.75 5.84267 20.75H18.1573C19.5458 20.75 20.3813 19.2105 19.6246 18.0463L15.2597 11.3311C14.6007 10.3173 14.25 9.13408 14.25 7.92492V5V4.75ZM12.75 4.75L11.25 4.75V5V7.92492C11.25 9.42428 10.8151 10.8915 9.99792 12.1486L5.63306 18.8638C5.52495 19.0301 5.64431 19.25 5.84267 19.25H18.1573C18.3557 19.25 18.475 19.0301 18.3669 18.8638L14.002 12.1486C13.1849 10.8914 12.75 9.42428 12.75 7.92492V5V4.75ZM10.5 15.75C10.0858 15.75 9.75 16.0858 9.75 16.5C9.75 16.9142 10.0858 17.25 10.5 17.25C10.9142 17.25 11.25 16.9142 11.25 16.5C11.25 16.0858 10.9142 15.75 10.5 15.75ZM8.25 16.5C8.25 15.2574 9.25736 14.25 10.5 14.25C11.7426 14.25 12.75 15.2574 12.75 16.5C12.75 17.7426 11.7426 18.75 10.5 18.75C9.25736 18.75 8.25 17.7426 8.25 16.5ZM13.01 13.75C13.4242 13.75 13.76 13.4142 13.76 13C13.76 12.5858 13.4242 12.25 13.01 12.25H13C12.5858 12.25 12.25 12.5858 12.25 13C12.25 13.4142 12.5858 13.75 13 13.75H13.01Z" fill="white"/>
</svg>
