<!-- Generated by IcoMoon.io -->
<svg version="1.1" xmlns="http://www.w3.org/2000/svg" width="32" height="32" viewBox="0 0 32 32">
<title>ambassadors</title>
<path d="M16.746 1.254l-1.493 0-2.691 2.691h-3.563l-1.056 1.056v3.563l-2.691 2.691v1.493l2.691 2.691v3.563l1.056 1.056h1l0 8.945 1.447 0.894 4.553-2.276 4.553 2.276 1.447-0.894v-8.945h1l1.056-1.056v-3.563l2.691-2.691v-1.493l-2.691-2.691v-3.563l-1.056-1.056h-3.563l-2.691-2.691zM12 20.055h0.563l2.691 2.691h1.493l2.691-2.691h0.563v7.327l-3.553-1.776h-0.894l-3.553 1.776-0-7.327zM13.746 5.746l2.254-2.254 2.254 2.253 0.746 0.309h2.945v2.944l0.309 0.746 2.254 2.254-2.254 2.254-0.309 0.746v2.945h-2.945l-0.746 0.309-2.254 2.254-2.254-2.254-0.746-0.309h-2.944v-2.945l-0.309-0.746-2.254-2.254 2.254-2.254 0.309-0.746v-2.944h2.944l0.746-0.309z" fill="#fff"></path>
</svg>
