<!-- Generated by IcoMoon.io -->
<svg version="1.1" xmlns="http://www.w3.org/2000/svg" width="32" height="32" viewBox="0 0 32 32">
<title>staking</title>
<path d="M8 7c0 0 0 0 0 0h0v0.013c0.004 0.225 0.106 0.512 0.432 0.854 0.337 0.354 0.873 0.719 1.611 1.047 1.473 0.655 3.579 1.085 5.958 1.085s4.484-0.431 5.958-1.085c0.738-0.328 1.273-0.693 1.611-1.047 0.332-0.349 0.432-0.641 0.432-0.868s-0.099-0.518-0.432-0.868c-0.337-0.354-0.873-0.719-1.611-1.047-1.473-0.655-3.579-1.085-5.958-1.085s-4.484 0.431-5.958 1.085c-0.738 0.328-1.273 0.693-1.611 1.047-0.332 0.349-0.432 0.641-0.432 0.868zM6 7.026c-0-0.009-0-0.017-0-0.026 0-0.878 0.404-1.639 0.983-2.246 0.574-0.603 1.356-1.1 2.247-1.496 1.784-0.793 4.178-1.258 6.77-1.258s4.986 0.465 6.77 1.258c0.891 0.396 1.673 0.893 2.247 1.496 0.579 0.608 0.983 1.369 0.983 2.246v18c0 0.878-0.404 1.639-0.983 2.246-0.573 0.603-1.356 1.1-2.247 1.496-1.784 0.793-4.178 1.258-6.77 1.258s-4.986-0.465-6.77-1.258c-0.891-0.396-1.673-0.893-2.247-1.496-0.578-0.608-0.983-1.369-0.983-2.246l0-5.985-0-0.015v-1h0l0-4.979-0-0.021v-1h0l0-4.974zM8 10.080v2.931c0.003 0.225 0.105 0.513 0.432 0.857 0.337 0.354 0.873 0.719 1.611 1.047 1.473 0.655 3.579 1.085 5.958 1.085s4.484-0.431 5.958-1.085c0.738-0.328 1.273-0.693 1.611-1.047 0.332-0.349 0.432-0.641 0.432-0.868v-2.92c-0.375 0.246-0.789 0.466-1.23 0.662-1.784 0.793-4.178 1.258-6.77 1.258s-4.986-0.465-6.77-1.258c-0.44-0.196-0.854-0.416-1.23-0.662zM8 19l0 0.008c0.002 0.226 0.103 0.515 0.432 0.86 0.337 0.354 0.873 0.719 1.611 1.047 1.473 0.655 3.579 1.085 5.958 1.085s4.484-0.431 5.958-1.085c0.738-0.328 1.273-0.693 1.611-1.047 0.332-0.349 0.432-0.641 0.432-0.868v-2.92c-0.375 0.246-0.789 0.466-1.23 0.662-1.784 0.793-4.178 1.258-6.77 1.258s-4.986-0.465-6.77-1.258c-0.44-0.196-0.854-0.416-1.23-0.662l-0 2.92zM22.77 22.742c-1.784 0.793-4.178 1.258-6.77 1.258s-4.986-0.465-6.77-1.258c-0.44-0.196-0.854-0.416-1.23-0.662v2.92c0 0.227 0.099 0.518 0.432 0.868 0.337 0.354 0.873 0.719 1.611 1.047 1.473 0.655 3.579 1.085 5.958 1.085s4.484-0.431 5.958-1.085c0.738-0.328 1.273-0.693 1.611-1.047 0.332-0.349 0.432-0.641 0.432-0.868v-2.92c-0.375 0.246-0.789 0.466-1.23 0.662z" fill="#fff"></path>
</svg>
