<svg width="24" height="24" viewBox="0 0 24 24" fill="none" xmlns="http://www.w3.org/2000/svg">
<path fill-rule="evenodd" clip-rule="evenodd" d="M12.3677 2.34632C12.1394 2.21789 11.8606 2.21789 11.6323 2.34632L3.6323 6.84632C3.39615 6.97916 3.25 7.22904 3.25 7.5V16.5C3.25 16.771 3.39615 17.0208 3.6323 17.1537L11.6323 21.6537C11.8611 21.7824 12.1405 21.7821 12.369 21.6529L14.4102 20.4992L15.0632 20.1302L14.3251 18.8243L13.6722 19.1934L11.9991 20.139L4.75 16.0614V7.93864L12 3.86051L19.25 7.93864V16.0609L18.3642 16.5582L17.7102 16.9254L18.4445 18.2334L19.0985 17.8662L20.3672 17.154C20.6036 17.0212 20.75 16.7712 20.75 16.5V7.5C20.75 7.22904 20.6039 6.97916 20.3677 6.84632L12.3677 2.34632ZM12 8.75C10.2051 8.75 8.75 10.2051 8.75 12C8.75 13.7949 10.2051 15.25 12 15.25C13.7949 15.25 15.25 13.7949 15.25 12C15.25 10.2051 13.7949 8.75 12 8.75ZM7.25 12C7.25 9.37665 9.37665 7.25 12 7.25C14.6234 7.25 16.75 9.37665 16.75 12C16.75 13.3312 16.2024 14.5346 15.3201 15.397L17.636 19.1025L18.0335 19.7385L16.7615 20.5335L16.364 19.8975L14.0936 16.2649C13.462 16.5755 12.7514 16.75 12 16.75C9.37665 16.75 7.25 14.6234 7.25 12Z" fill="white"/>
</svg>
