<?xml version="1.0" encoding="UTF-8"?>
<svg width="96px" height="96px" viewBox="0 0 96 96" version="1.1" xmlns="http://www.w3.org/2000/svg" xmlns:xlink="http://www.w3.org/1999/xlink">
    <!-- Generator: Sketch 58 (84663) - https://sketch.com -->
    <title>Icons / IoT</title>
    <desc>Created with Sketch.</desc>
    <g id="Icons-/-IoT" stroke="none" stroke-width="1" fill="none" fill-rule="evenodd">
        <g id="Group" transform="translate(14.000000, 15.500000)">
            <circle id="Oval" stroke="#FFFFFF" cx="4.5" cy="16" r="4.5"></circle>
            <circle id="Oval" stroke="#00EAC7" cx="57.5" cy="18" r="4.5"></circle>
            <circle id="Oval" stroke="#FFFFFF" stroke-width="2" cx="57.5" cy="54" r="7.5"></circle>
            <circle id="Oval" stroke="#FFFFFF" stroke-width="2" cx="11.5" cy="54" r="7.5"></circle>
            <circle id="Oval" stroke="#FFFFFF" cx="33.5" cy="60" r="4.5"></circle>
            <circle id="Oval" stroke="#FFFFFF" stroke-width="2" cx="33.5" cy="8" r="7.5"></circle>
            <circle id="Oval" stroke="#FFFFFF" stroke-width="2" cx="33.5" cy="34" r="4.5"></circle>
            <path d="M19,46.5 L29.6785461,36.5" id="Line" stroke="#FFFFFF" stroke-width="2" stroke-linecap="round"></path>
            <path d="M37.8681011,47.5 L50,36.5" id="Line" stroke="#FFFFFF" stroke-width="2" stroke-linecap="round" transform="translate(43.934051, 42.000000) scale(-1, 1) translate(-43.934051, -42.000000) "></path>
            <path d="M8.63189893,29 L24.6318989,19" id="Line" stroke="#FFFFFF" stroke-linecap="round" transform="translate(16.500000, 24.000000) scale(-1, 1) translate(-16.500000, -24.000000) "></path>
            <path d="M33.5,28.5 L33.5,9.5" id="Line-2" stroke="#FFFFFF" stroke-width="2" stroke-linecap="round"></path>
            <path d="M33.5,56 L33.5,41.5" id="Line-2" stroke="#FFFFFF" stroke-linecap="round"></path>
            <path d="M32,23.5 C26.918807,24.1628988 23,28.4027882 23,33.534353 C23,34.9417769 23.2947841,36.2821263 23.827484,37.5" id="Oval" stroke="#FFFFFF" stroke-linecap="round"></path>
            <path d="M45,23.5 C39.918807,24.1628988 36,28.4027882 36,33.534353 C36,34.9417769 36.2947841,36.2821263 36.827484,37.5" id="Oval" stroke="#FFFFFF" stroke-linecap="round" transform="translate(40.500000, 30.500000) scale(-1, 1) translate(-40.500000, -30.500000) "></path>
            <path d="M40,47.5 C39.8189491,45.576133 39.0917935,43.8400664 38,42.5" id="Oval" stroke="#00EAC7" stroke-linecap="round" transform="translate(39.000000, 45.000000) rotate(90.000000) translate(-39.000000, -45.000000) "></path>
        </g>
    </g>
</svg>