<?xml version="1.0" encoding="utf-8"?>
<!-- Generator: Adobe Illustrator 26.0.1, SVG Export Plug-In . SVG Version: 6.00 Build 0)  -->
<svg version="1.1" id="Layer_1" xmlns="http://www.w3.org/2000/svg" xmlns:xlink="http://www.w3.org/1999/xlink" x="0px" y="0px"
	 viewBox="0 0 418 69" style="enable-background:new 0 0 418 69;" xml:space="preserve">
<style type="text/css">
	.st0{fill:#FFFFFF;}
	.st1{opacity:0.5;fill:#FFFFFF;}
	.st2{opacity:0.5;fill:url(#SVGID_1_);}
	.st3{opacity:0.55;fill:#FFFFFF;}
</style>
<path class="st0" d="M88.4,44.2L71.8,15.3c-3.7-6-12.5-6.1-16.1,0.3L38.2,45.7C35,51.2,39,58.1,45.5,58.1h35
	C87.1,58.1,92.1,51,88.4,44.2z"/>
<path class="st1" d="M64.4,46.5l-1-1.8c-1-1.7-3.1-5.3-3.1-5.3L46.2,14.9c-2.8-4.3-8.5-5.4-12.8-2.6c-1.4,0.9-2.4,2.1-3.1,3.6
	L13.8,44.3c-2.5,4.4-1,10,3.4,12.6c1.4,0.8,3,1.2,4.6,1.2h58.5C71.4,58.2,68.5,53.5,64.4,46.5z"/>
<linearGradient id="SVGID_1_" gradientUnits="userSpaceOnUse" x1="33.4835" y1="34.3575" x2="73.9719" y2="19.4275" gradientTransform="matrix(1 0 0 -1 0 70)">
	<stop  offset="0" style="stop-color:#FFFFFF;stop-opacity:0"/>
	<stop  offset="1" style="stop-color:#FFFFFF"/>
</linearGradient>
<path class="st2" d="M64.4,46.5l-1-1.8c-1-1.7-3.1-5.3-3.1-5.3l-9.1-16L38.1,45.7c-3.2,5.5,0.8,12.5,7.3,12.5h35
	C71.3,58.1,68.5,53.5,64.4,46.5z"/>
<path class="st0" d="M150.4,55.6V22.2h27.7v2.1c0,1.7-1.4,3-3,3h-17.8v8.9h17.8v5.1h-17.8v9h17.8c1.7,0,3,1.4,3,3v2.1L150.4,55.6z"
	/>
<path class="st0" d="M217.9,22.1h-6.5c-1.2,0-2.3,0.5-3.1,1.5l-7.8,10l-7.9-9.9c-0.8-0.9-1.9-1.5-3.1-1.5h-6.5l13.2,16.7l-13.2,16.7
	h6.5c1.2,0,2.3-0.5,3.1-1.5l7.9-9.9l7.9,10c0.8,0.9,1.9,1.5,3.1,1.5h6.5L204.7,39L217.9,22.1z"/>
<path class="st0" d="M128.6,52l9.1-15.9v19.4h6.9V22.1h-4.3c-1.4,0-2.6,0.7-3.2,1.9l-10.9,19.9L115.4,24c-0.6-1.2-1.9-1.9-3.2-1.9
	h-4.3v33.4h6.9V36.1l9.1,15.9H128.6z"/>
<path class="st0" d="M235.9,56c-9.5,0.2-17.3-7.3-17.5-16.8c0-0.1,0-0.2,0-0.3c0-5.3,1.6-9.6,4.6-12.6c3-3,7.4-4.5,12.5-4.5
	c6.1,0,10.9,2.1,14.3,6.2l-2.2,1.8c-1.4,1.1-3.4,1.2-4.8,0.1c-2.1-1.5-4.5-2.3-7.1-2.2c-6.8,0-10.8,4.1-10.8,11s4.2,11.3,10.8,11.3
	c2.5,0.1,5-0.7,7.1-2.2c1.5-1.1,3.4-1,4.8,0.1l2.2,1.8C246.5,53.9,241.9,56,235.9,56z"/>
<g>
	<path class="st3" d="M404.9,52.4h-0.7c-0.8,0-1.6-0.3-2.2-0.9c-0.6-0.6-0.9-1.4-1-2.2V24.7c0-1.4-1.1-2.5-2.5-2.5h-3.7v28
		c-0.1,1.7,0.8,3.4,2.2,4.3c1.7,1,3.6,1.5,5.6,1.4l2.8,0.1v-3C405.4,52.6,405.1,52.4,404.9,52.4z"/>
	<path class="st3" d="M331.8,34.7c-2.4-2.1-5.5-3.1-9.4-3.1s-7,1-9.4,3.1c-1.1,0.9-1.9,2.1-2.5,3.4c-0.5,1.2-0.8,3.1-0.8,5.6
		c0,2.5,0.2,4.3,0.8,5.6c0.5,1.4,1.4,2.5,2.5,3.5c2.4,2.1,5.5,3.1,9.4,3.1c3.8,0,7-1,9.2-3c1.1-0.9,2-2.1,2.5-3.5
		c0.5-1.2,0.8-3.1,0.8-5.6c0.1-1.9-0.2-3.8-0.8-5.7C333.8,36.7,332.9,35.6,331.8,34.7z M322.5,52.5c-4.2,0-6.3-2.9-6.3-8.7
		s2.1-8.6,6.3-8.6c4.2,0,6.3,2.9,6.3,8.7C328.9,49.6,326.8,52.5,322.5,52.5z"/>
	<path class="st3" d="M351.2,31.7c-2.3,0-4.1,0.3-5.5,1l-1.1,0.6v-8.7c0-1.4-1.1-2.5-2.5-2.5h-3.8v29.6c0,0.2,0.1,0.3,0.3,0.4
		c0.5,0.3,1,0.6,1.4,1c2.7,1.8,5.8,2.7,9,2.7c4.9,0,8.6-1.2,10.9-3.9c2.1-2.1,3.1-4.9,3.1-8.3c0-3.5-0.9-6.3-2.7-8.4
		C358.4,32.9,355.3,31.7,351.2,31.7z M355,49.5c-1.1,1.8-3.1,2.9-5.3,2.9c-1.7,0-3.4-0.4-4.8-1.4l-0.3-0.2V36.9l0.3-0.1
		c1.8-1.1,3.4-1.6,4.8-1.6c4.6,0,6.9,2.9,6.9,8.6C356.6,45.8,356.1,47.8,355,49.5z"/>
	<path class="st3" d="M389.9,32.1H385v1.8l-0.4-0.3c-2-1.4-4.4-2.1-6.9-2.1c-7,0-11.4,4.5-11.4,12.1s4.4,12.1,11.5,12.1
		c2.7,0,5.1-0.8,6.6-2.2l0.4-0.3v2.1h5.5V32.6C390.4,32.3,390.2,32.1,389.9,32.1z M385,49.6L385,49.6c-2,2-4.4,2.1-5.8,2.1
		c-4.4,0-7-3.5-7-8.1s2.6-8,7-8c2.5,0,4.5,0.6,5.8,2.2l0.1,0.1V49.6z"/>
	<path class="st3" d="M291.9,36.2h-9.4c-1.7,0-3,1.4-3,3v2.2h7.6v6.9l-0.1,0.1c-1.9,1.4-4.6,2.1-8.1,2.1c-7.2,0-11.7-4.5-11.7-11.6
		c0-7.1,4.3-11.5,11.2-11.5c2.3,0,4.6,0.5,6.7,1.6c1.5,0.8,3.3,0.4,4.4-0.8l1.6-1.8c-3.4-3-7.6-4.5-12.8-4.5
		c-10.6,0-17.3,6.6-17.3,17.1c0,10.5,6.6,17.1,17.4,17.1c5.9,0,10.6-1.5,13.9-4.3V36.7C292.5,36.4,292.2,36.2,291.9,36.2z"/>
	<path class="st3" d="M307,52.4h-0.7c-0.8,0-1.6-0.3-2.2-0.9c-0.6-0.6-0.9-1.4-1-2.2V24.7c0-1.4-1.1-2.5-2.5-2.5h-3.7v28
		c-0.1,1.7,0.8,3.4,2.3,4.3c1.7,1,3.6,1.5,5.6,1.4l2.8,0.1v-3C307.6,52.6,307.3,52.4,307,52.4z"/>
</g>
</svg>
