<?xml version="1.0" encoding="UTF-8"?> <svg xmlns="http://www.w3.org/2000/svg" width="192" height="192" viewBox="0 0 192 192" fill="none"><circle cx="96" cy="96" r="65" stroke="white" stroke-opacity="0.2" stroke-width="2" stroke-dasharray="4 4"></circle><circle cx="96" cy="96" r="47" stroke="white" stroke-opacity="0.1" stroke-width="2"></circle><path fill-rule="evenodd" clip-rule="evenodd" d="M96 154C128.033 154 154 128.033 154 96C154 63.9675 128.033 38 96 38C63.9675 38 38 63.9675 38 96C38 128.033 63.9675 154 96 154ZM96 138C119.196 138 138 119.196 138 96C138 72.804 119.196 54 96 54C72.804 54 54 72.804 54 96C54 119.196 72.804 138 96 138Z" fill="#111B24"></path><path d="M153 96C153 127.48 127.48 153 96 153V155C128.585 155 155 128.585 155 96H153ZM96 39C127.48 39 153 64.5198 153 96H155C155 63.4152 128.585 37 96 37V39ZM39 96C39 64.5198 64.5198 39 96 39V37C63.4152 37 37 63.4152 37 96H39ZM96 153C64.5198 153 39 127.48 39 96H37C37 128.585 63.4152 155 96 155V153ZM137 96C137 118.644 118.644 137 96 137V139C119.748 139 139 119.748 139 96H137ZM96 55C118.644 55 137 73.3563 137 96H139C139 72.2518 119.748 53 96 53V55ZM55 96C55 73.3563 73.3563 55 96 55V53C72.2518 53 53 72.2518 53 96H55ZM96 137C73.3563 137 55 118.644 55 96H53C53 119.748 72.2518 139 96 139V137Z" fill="white"></path><path fill-rule="evenodd" clip-rule="evenodd" d="M95.1506 124.862L112.121 107.891L112.121 107.891L164.447 55.5647L147.476 38.5942L95.1504 90.9203L76.7659 72.5358L59.7953 89.5063L95.1506 124.862Z" fill="#111B24"></path><path fill-rule="evenodd" clip-rule="evenodd" d="M95.1506 124.862L112.121 107.891L112.121 107.891L164.447 55.5647L147.476 38.5942L95.1504 90.9203L76.7659 72.5358L59.7953 89.5063L95.1506 124.862Z" fill="#00EAC7" fill-opacity="0.06"></path><path d="M112.121 107.891L113.535 109.305V106.477L112.121 107.891ZM95.1506 124.862L93.7364 126.276L96.5648 126.276L95.1506 124.862ZM112.121 107.891L110.707 106.477V109.305L112.121 107.891ZM164.447 55.5647L165.861 56.9789L165.861 54.1505L164.447 55.5647ZM147.476 38.5942L148.891 37.1799H146.062L147.476 38.5942ZM95.1504 90.9203L93.7361 92.3345H96.5646L95.1504 90.9203ZM76.7659 72.5358L78.1801 71.1216L75.3516 71.1216L76.7659 72.5358ZM59.7953 89.5063L58.3811 88.0921L58.3811 90.9206L59.7953 89.5063ZM110.707 106.477L93.7364 123.447L96.5648 126.276L113.535 109.305L110.707 106.477ZM110.707 109.305L110.707 109.305L113.535 106.477L113.535 106.477L110.707 109.305ZM163.033 54.1505L110.707 106.477L113.535 109.305L165.861 56.9789L163.033 54.1505ZM146.062 40.0084L163.033 56.9789L165.861 54.1505L148.891 37.1799L146.062 40.0084ZM96.5646 92.3345L148.891 40.0084L146.062 37.1799L93.7361 89.5061L96.5646 92.3345ZM75.3516 73.95L93.7361 92.3345L96.5646 89.5061L78.1801 71.1216L75.3516 73.95ZM61.2095 90.9206L78.1801 73.95L75.3516 71.1216L58.3811 88.0921L61.2095 90.9206ZM96.5648 123.447L61.2095 88.0921L58.3811 90.9206L93.7364 126.276L96.5648 123.447Z" fill="#00EAC7"></path><path d="M94 91.1996L101 97.9996L154 44.9996" stroke="#00EAC7" stroke-width="2" stroke-linejoin="bevel"></path><line x1="66.7071" y1="83.2929" x2="102.707" y2="119.293" stroke="#00EAC7" stroke-width="2" stroke-linejoin="bevel"></line><path d="M54.9878 54.9878L66.3015 66.3015" stroke="white" stroke-width="2" stroke-linejoin="bevel"></path><path d="M125.698 125.698L137.012 137.012" stroke="white" stroke-width="2" stroke-linejoin="bevel"></path><path d="M66.3015 125.698L54.9878 137.012" stroke="white" stroke-width="2" stroke-linejoin="bevel"></path><path d="M37 41H29V33" stroke="white" stroke-opacity="0.07" stroke-width="2" stroke-linecap="square"></path><path d="M17 45H25V53" stroke="white" stroke-opacity="0.07" stroke-width="2" stroke-linecap="square"></path><path d="M154 156L159.706 160.146L157.527 166.854H150.473L148.294 160.146L154 156Z" fill="white" fill-opacity="0.07"></path></svg> 