<?xml version="1.0" encoding="utf-8"?>
<!-- Generator: Adobe Illustrator 25.4.1, SVG Export Plug-In . SVG Version: 6.00 Build 0)  -->
<svg version="1.1" id="Layer_1" xmlns="http://www.w3.org/2000/svg" xmlns:xlink="http://www.w3.org/1999/xlink" x="0px" y="0px"
	 viewBox="0 0 1000 215" style="enable-background:new 0 0 1000 215;" xml:space="preserve">
<style type="text/css">
	.st0{fill:#FFFFFF;}
	.st1{opacity:0.5;fill:#FFFFFF;}
</style>
<path class="st0" d="M347.5,161.4H323V53.7h24.4v15.8c8.8-11.7,22.2-18,37.6-18c24.6,0,39.1,16.5,39.1,42.1v67.8h-24.4V98.1
	c0-16.3-8.6-25-22-25c-18.2,0-30.3,16.3-30.3,41L347.5,161.4z"/>
<path class="st0" d="M440.1,107.6c0-33.6,21.6-56.2,53.8-56.2s53.8,22.6,53.8,56.2c0,33.4-21.6,56-53.8,56S440.1,141,440.1,107.6z
	 M522.7,107.6c0-20.7-11.8-34.6-28.8-34.6s-28.8,13.9-28.8,34.6c0,20.5,11.9,34.4,28.8,34.4S522.7,128.1,522.7,107.6L522.7,107.6z"
	/>
<path class="st0" d="M589,161.4h-24.4V53.7H589v15.8c7.7-11.8,19-18,32-18c14.3,0,26.9,7.5,32.7,21.2c8.8-13.9,22.9-21.2,37.6-21.2
	c20.7,0,35.2,14.7,35.2,39.6v70.3H702V96.9c0-15.6-6.8-23.9-19.2-23.9c-16.4,0-25.6,14.8-25.6,41.2v47.2h-24.4V96.9
	c0-16.2-7.2-23.9-18.6-23.9c-15.8,0-25.2,15.2-25.2,41.2L589,161.4z"/>
<path class="st0" d="M749,53.7h24.4v107.7H749V53.7z"/>
<path class="st0" d="M790.4,107.4c0-33.4,22.2-56,53.6-56c24.1,0,41.5,12.8,48.9,34l-22.7,9.4C867,80.7,858,73,844.5,73
	c-17.7,0-29.1,13.5-29.1,34.4c0,21,11.5,34.6,29.3,34.6c13.3,0,22.4-7.7,25.4-21.8l22.6,9.4c-7.9,22.2-24.8,34-48.3,34
	C812.5,163.6,790.4,141,790.4,107.4z"/>
<path class="st0" d="M906,132.9l22.2-10.1c1.5,11.8,13.7,20.3,27.8,20.3c10.9,0,19.4-5.1,19.4-11.8c0-18.2-64.9-10.5-64.9-47.3
	c0-20.3,17.9-31.9,42.3-31.9c24.1,0,41.9,11.5,46.2,26.7l-23.3,10.1c-0.8-8.8-10.1-16.4-23.5-16.4c-9.8,0-17.3,4.1-17.3,10
	c0,17.5,65,9.4,65,47.9c0,19.5-17.3,33.2-44.5,33.2C928.5,163.6,910.1,151.5,906,132.9z"/>
<path class="st1" d="M98,47.7C97.6,20.6,75.4-1,48.3-0.7S-0.4,21.9,0,49v117c0,27.1,21.9,49,48.9,49.1c13,0,25.6-5.2,34.8-14.4
	l33.3-33.3l0,0c0.4,27.1,22.6,48.7,49.7,48.3s48.7-22.6,48.3-49.7V49c0-27.1-21.9-49-48.9-49.1c-13,0-25.6,5.2-34.8,14.4L98,47.7"/>
<ellipse class="st0" cx="108.3" cy="107.5" rx="49" ry="49"/>
</svg>
