<?xml version="1.0" encoding="UTF-8"?>
<svg width="96px" height="96px" viewBox="0 0 96 96" version="1.1" xmlns="http://www.w3.org/2000/svg" xmlns:xlink="http://www.w3.org/1999/xlink">
    <!-- Generator: Sketch 58 (84663) - https://sketch.com -->
    <title>Icons / notary signatory</title>
    <desc>Created with Sketch.</desc>
    <g id="Icons-/-notary-signatory" stroke="none" stroke-width="1" fill="none" fill-rule="evenodd">
        <path d="M47.8522068,47.8522068 C52.8227695,47.8522068 56.8522068,43.8227695 56.8522068,38.8522068 C56.8522068,33.881644 52.8227695,29.8522068 47.8522068,29.8522068 C42.881644,29.8522068 38.8522068,33.881644 38.8522068,38.8522068" id="Oval" stroke="#FFFFFF" stroke-linecap="round" stroke-linejoin="round" transform="translate(47.852207, 38.852207) rotate(90.000000) translate(-47.852207, -38.852207) "></path>
        <path d="M77.393282,48.9823762 C75.2796375,44.838082 70.9712535,42 66,42" id="Oval" stroke="#00EAC7" stroke-linecap="round" transform="translate(71.696641, 45.491188) rotate(72.000000) translate(-71.696641, -45.491188) "></path>
        <path d="M20,24 C23.3137085,24 26,21.3137085 26,18" id="Oval" stroke="#00EAC7" stroke-width="2" stroke-linecap="round" stroke-linejoin="round" transform="translate(23.000000, 21.000000) rotate(175.000000) translate(-23.000000, -21.000000) "></path>
        <path d="M45.0545412,76.4548219 L31.8113624,76.5109576 C31.2593926,76.5296076 30.7968139,76.0972665 30.7781638,75.5452968 C30.7709055,75.3304793 30.8330553,75.1190399 30.9554013,74.9423179 L34.3229064,70.0781438 L30.9092825,65.1473538 C30.5949166,64.6932696 30.7081806,64.0703176 31.1622648,63.7559516" id="Rectangle" stroke="#FFFFFF" stroke-width="2" stroke-linecap="round" stroke-linejoin="round" transform="translate(37.892963, 70.133745) rotate(-75.000000) translate(-37.892963, -70.133745) "></path>
        <path d="M63.8522068,63.0099989 L54.8522068,63.6944146" id="Rectangle" stroke="#00EAC7" stroke-linecap="round" stroke-linejoin="round" transform="translate(59.352207, 63.352207) rotate(-107.000000) translate(-59.352207, -63.352207) "></path>
        <path d="M71.280338,61.4359753 L54.4294491,64.2727944 C53.9117069,64.2914445 71.6792323,61.4216064 71.280338,61.4359753 Z" id="Rectangle" stroke="#FFFFFF" stroke-linecap="round" stroke-linejoin="round" transform="translate(62.852652, 62.854403) rotate(-101.000000) translate(-62.852652, -62.854403) "></path>
        <path d="M41.8392896,62.115119 L24.1880837,64.4673678 L41.8392896,62.115119 Z" id="Rectangle" stroke="#FFFFFF" stroke-linecap="round" stroke-linejoin="round" transform="translate(33.013687, 63.291243) scale(-1, 1) rotate(-101.000000) translate(-33.013687, -63.291243) "></path>
        <path d="M66.6456429,74.2729175 L47.9457358,73.8360499 C47.3934696,73.8315219 46.9494401,73.380151 46.9539,72.8278848 C46.9556128,72.6272828 47.0175537,72.4318125 47.1317423,72.2668735 L50.5561152,67.320557 L47.1594793,62.4143051 C46.8451133,61.9602209 46.9583773,61.337269 47.4124615,61.022903" id="Rectangle" stroke="#FFFFFF" stroke-width="2" stroke-linecap="round" stroke-linejoin="round" transform="translate(56.799771, 67.647910) scale(-1, 1) rotate(-75.000000) translate(-56.799771, -67.647910) "></path>
        <polygon id="Star" stroke="#FFFFFF" stroke-width="2" stroke-linejoin="round" transform="translate(47.852207, 38.852207) rotate(10.000000) translate(-47.852207, -38.852207) " points="47.8522068 55.5187804 44.340581 56.5063418 41.4741851 54.250113 37.8519426 53.8186598 36.0671595 50.637254 32.8857537 48.8524709 32.4543005 45.2302284 30.1980717 42.3638325 31.1856331 38.8522068 30.1980717 35.340581 32.4543005 32.4741851 32.8857537 28.8519426 36.0671595 27.0671595 37.8519426 23.8857537 41.4741851 23.4543005 44.340581 21.1980717 47.8522068 22.1856331 51.3638325 21.1980717 54.2302284 23.4543005 57.8524709 23.8857537 59.637254 27.0671595 62.8186598 28.8519426 63.250113 32.4741851 65.5063418 35.340581 64.5187804 38.8522068 65.5063418 42.3638325 63.250113 45.2302284 62.8186598 48.8524709 59.637254 50.637254 57.8524709 53.8186598 54.2302284 54.250113 51.3638325 56.5063418"></polygon>
        <circle id="Oval" stroke="#FFFFFF" stroke-width="3" cx="68.5" cy="11.5" r="1.5"></circle>
    </g>
</svg>