<svg width="24" height="24" viewBox="0 0 24 24" fill="none" xmlns="http://www.w3.org/2000/svg">
<path fill-rule="evenodd" clip-rule="evenodd" d="M4.25 3C4.25 2.58579 4.58579 2.25 5 2.25H19C19.4142 2.25 19.75 2.58579 19.75 3V19.5C19.75 20.7426 18.7426 21.75 17.5 21.75H5C3.48122 21.75 2.25 20.5188 2.25 19V16C2.25 15.5858 2.58579 15.25 3 15.25H4.25V3ZM5 16.75H3.75V19C3.75 19.6904 4.30964 20.25 5 20.25H15.378C15.2951 20.0154 15.25 19.763 15.25 19.5V16.75H5ZM5.75 15.25V3.75H18.25V19.5C18.25 19.9142 17.9142 20.25 17.5 20.25C17.0858 20.25 16.75 19.9142 16.75 19.5V16C16.75 15.5858 16.4142 15.25 16 15.25H5.75ZM8.25 7.25H9H15H15.75V8.75H15H9H8.25V7.25ZM9 11.25H8.25V12.75H9H15H15.75V11.25H15H9Z" fill="#ffffff"/>
</svg>
