<?xml version="1.0" encoding="UTF-8"?>
<svg width="96px" height="96px" viewBox="0 0 96 96" version="1.1" xmlns="http://www.w3.org/2000/svg" xmlns:xlink="http://www.w3.org/1999/xlink">
    <!-- Generator: Sketch 58 (84663) - https://sketch.com -->
    <title>Icons / secure</title>
    <desc>Created with Sketch.</desc>
    <g id="Icons-/-secure" stroke="none" stroke-width="1" fill="none" fill-rule="evenodd" stroke-linecap="round" stroke-linejoin="round">
        <polyline id="Stroke-7" stroke="#FFFFFF" points="57.5 80.5 25.5 80.5 25.5 61.5"></polyline>
        <polyline id="Stroke-8" stroke="#FFFFFF" stroke-width="2" points="25 56 25 41 70 41 70 81 63 81"></polyline>
        <path d="M64,46 L64,32 C64,23.458 57.131,17 48.5,17 C39.869,17 32.104,23.458 32.104,32 L32,46" id="Stroke-9" stroke="#FFFFFF" stroke-width="1.99"></path>
        <path d="M38.5,32.5 C38.5,27.028 42.528,23.5 48,23.5 C53.472,23.5 57.5,27.028 57.5,32.5 L57.5,47" id="Stroke-11" stroke="#FFFFFF"></path>
        <path d="M70.4414,32.5073 C70.4414,19.9653 61.0424,10.5003 48.5004,10.5003" id="Stroke-13" stroke="#00EAC7"></path>
        <path d="M48.1465,73.4053 L40.6475,73.5393 L40.4845,64.3903 C38.5515,62.4963 37.4035,59.9003 37.3535,57.0943" id="Stroke-15" stroke="#00EAC7"></path>
        <path d="M53.5,57 C53.5,53.963 51.037,51.5 48,51.5 C44.963,51.5 42.5,53.963 42.5,57 C42.5,59.137 43.721,60.984 45.5,61.895 L45.5,68.5 L50.5,68.5 L50.5,61.895 C52.279,60.984 53.5,59.137 53.5,57 Z" id="Stroke-17" stroke="#FFFFFF"></path>
    </g>
</svg>