<?xml version="1.0" encoding="UTF-8"?>
<svg width="96px" height="96px" viewBox="0 0 96 96" version="1.1" xmlns="http://www.w3.org/2000/svg" xmlns:xlink="http://www.w3.org/1999/xlink">
    <!-- Generator: Sketch 58 (84663) - https://sketch.com -->
    <title>Icons / transparent docs</title>
    <desc>Created with Sketch.</desc>
    <g id="Icons-/-transparent-docs" stroke="none" stroke-width="1" fill="none" fill-rule="evenodd" stroke-linecap="round">
        <polyline id="Stroke-16" stroke="#FFFFFF" stroke-width="2" stroke-linejoin="round" points="60.8428 51.3994 53 43 46.636 49.363 54.4798 57.7634 60.8428 64.1274 67.2068 57.7634 81 45"></polyline>
        <path d="M81.1573,32 C75.8239667,37.3333333 69.7715333,43.133 63,49.399" id="Stroke-18" stroke="#FFFFFF" stroke-linejoin="round"></path>
        <path d="M59,23 L67,23 C68.6568542,23 70,24.3431458 70,26 C70,42 70,54 70,62 C70,70 70,75 70,77 C70,78.6568542 68.6568542,80 67,80 L32,80 C30.3431458,80 29,78.6568542 29,77" id="Rectangle" stroke="#FFFFFF" stroke-width="2" transform="translate(49.500000, 51.500000) scale(-1, 1) translate(-49.500000, -51.500000) "></path>
        <path d="M44,12 L48,12 C49.6568542,12 51,13.2488899 51,14.7894737 C51,29.6666667 51,40.8245614 51,48.2631579 C51,55.7017544 51,60.3508772 51,62.2105263 C51,63.7511101 49.6568542,65 48,65 L17,65 C15.3431458,65 14,63.7511101 14,62.2105263" id="Rectangle" stroke="#FFFFFF" transform="translate(32.500000, 38.500000) scale(-1, -1) translate(-32.500000, -38.500000) "></path>
        <path d="M54,68.5 L34,68.5 C32.3431458,68.5 31,67.1568542 31,65.5 L31,55" id="Rectangle" stroke="#00EAC7" stroke-linejoin="round" transform="translate(42.500000, 61.750000) scale(1, -1) rotate(90.000000) translate(-42.500000, -61.750000) "></path>
        <path d="M61,24 L66,24 C67.6568542,24 69,25.0745166 69,26.4 C69,27.4666667 69,29.3333333 69,32" id="Rectangle" stroke="#FFFFFF" stroke-width="2" transform="translate(65.000000, 28.000000) scale(-1, -1) translate(-65.000000, -28.000000) "></path>
        <path d="M66,66 L74,66" id="Line" stroke="#00EAC7" stroke-linejoin="round" transform="translate(70.000000, 66.000000) rotate(90.000000) translate(-70.000000, -66.000000) "></path>
        <polyline id="Line" stroke="#FFFFFF" stroke-linejoin="round" points="46 23 61 23 70 32 70 35"></polyline>
    </g>
</svg>