<svg width="24" height="24" viewBox="0 0 24 24" fill="none" xmlns="http://www.w3.org/2000/svg">
<path fill-rule="evenodd" clip-rule="evenodd" d="M4 3.25C3.58579 3.25 3.25 3.58579 3.25 4V10C3.25 10.4142 3.58579 10.75 4 10.75H10C10.4142 10.75 10.75 10.4142 10.75 10V4C10.75 3.58579 10.4142 3.25 10 3.25H4ZM4.75 9.25V4.75H9.25V9.25H4.75ZM17.6495 3.625C17.5155 3.39295 17.2679 3.25 17 3.25C16.7321 3.25 16.4845 3.39295 16.3505 3.625L12.8864 9.625C12.7524 9.85705 12.7524 10.1429 12.8864 10.375C13.0204 10.6071 13.2679 10.75 13.5359 10.75H20.4641C20.7321 10.75 20.9796 10.6071 21.1136 10.375C21.2476 10.1429 21.2476 9.85705 21.1136 9.625L17.6495 3.625ZM17 5.5L19.1651 9.25H14.8349L17 5.5ZM7 14.75C5.75736 14.75 4.75 15.7574 4.75 17C4.75 18.2426 5.75736 19.25 7 19.25C8.24264 19.25 9.25 18.2426 9.25 17C9.25 15.7574 8.24264 14.75 7 14.75ZM3.25 17C3.25 14.9289 4.92893 13.25 7 13.25C9.07107 13.25 10.75 14.9289 10.75 17C10.75 19.0711 9.07107 20.75 7 20.75C4.92893 20.75 3.25 19.0711 3.25 17ZM20.7695 15.0617L17.4408 12.6432C17.178 12.4523 16.822 12.4523 16.5592 12.6432L13.2305 15.0617C12.9676 15.2527 12.8576 15.5912 12.958 15.9002L14.2295 19.8133C14.3299 20.1223 14.6178 20.3316 14.9428 20.3316H19.0572C19.3822 20.3316 19.6701 20.1223 19.7705 19.8133L21.042 15.9002C21.1424 15.5912 21.0324 15.2527 20.7695 15.0617ZM15.4877 18.8316L14.553 15.9549L17 14.1771L19.447 15.9549L18.5123 18.8316H15.4877Z" fill="#ffffff"/>
</svg>
