<?xml version="1.0" encoding="UTF-8"?>
<svg width="96px" height="96px" viewBox="0 0 96 96" version="1.1" xmlns="http://www.w3.org/2000/svg" xmlns:xlink="http://www.w3.org/1999/xlink">
    <!-- Generator: Sketch 58 (84663) - https://sketch.com -->
    <title>Icons / wallet</title>
    <desc>Created with Sketch.</desc>
    <g id="Icons-/-wallet" stroke="none" stroke-width="1" fill="none" fill-rule="evenodd">
        <path d="M60.5000476,57 C55.8129533,57 52,52.9626649 52,47.9998488 C52,43.0374359 55.8129533,39 60.5000476,39 C65.1871419,39 69,43.0374359 69,47.9998488 C69,52.9626649 65.1871419,57 60.5000476,57 M60.1970541,32 C51.483261,32 44.3936219,39.1772637 44.3936219,47.9998523 L44.3936219,48.0000492 L44.3936219,48.0001477 C44.3936219,52.8546981 40.5065834,56.7900484 35.7117265,56.7900484 C30.9168696,56.7900484 27.0298311,52.8546981 27.0298311,48.0001477 C27.0298311,43.1457942 30.9168696,39.2104439 35.7117265,39.2104439 C37.6133314,39.2104439 39.3666318,39.8365358 40.7967741,40.8864876 C41.6621921,38.5860258 42.9295397,36.4859252 44.5189757,34.6790313 C42.0174423,32.9950125 39.0264552,32 35.8038212,32 C27.0896392,32 20,39.1776575 20,48.0001477 C20,56.8225394 27.0896392,64 35.8038212,64 C39.0265524,64 42.0174423,63.0049875 44.5188784,61.3207718 C45.068821,60.9506697 45.6033982,60.558513 46.1021878,60.1235274 C46.8197874,59.4978293 47.4160204,58.8062631 47.9215201,58.0616283 C50.8214823,61.6811266 55.2460154,64 60.1970541,64 C68.9108471,64 76,56.822244 76,47.9998523 C76,39.1772637 68.9108471,32 60.1970541,32" id="Fill-1" fill="#F4F4F4"></path>
        <path d="M25,15.5 L36,15.5" id="Line" stroke="#00EAC7" stroke-linecap="round" stroke-linejoin="round"></path>
        <circle id="Oval" stroke="#FFFFFF" stroke-width="3" cx="17.5" cy="15.5" r="1.5"></circle>
        <path d="M82,42 C79.5379441,31.2736775 70.4767024,25 60.2642017,25 C56.9651171,25 53.8299812,25.7462596 51,27.0886587" id="Oval" stroke="#00EAC7" stroke-linecap="round"></path>
        <path d="M36,72 C32.031188,64.2182164 23.9412914,58.8891208 14.6067178,58.8891208" id="Oval" stroke="#00EAC7" stroke-width="2" stroke-linecap="round" transform="translate(25.303359, 65.444560) rotate(180.000000) translate(-25.303359, -65.444560) "></path>
    </g>
</svg>